<?xml version="1.0" encoding="utf-8"?>
<!-- Generator: Adobe Illustrator 27.5.0, SVG Export Plug-In . SVG Version: 6.00 Build 0)  -->
<svg version="1.1" xmlns="http://www.w3.org/2000/svg" xmlns:xlink="http://www.w3.org/1999/xlink" x="0px" y="0px"
	 viewBox="0 0 750 500" style="enable-background:new 0 0 750 500;" xml:space="preserve">
<g id="BACKGROUND">
	<rect y="-1.268" style="opacity:0.76;fill:#FCEEE5;" width="750" height="502.535"/>
	<rect y="-1.268" style="opacity:0.76;fill:#FCEEE5;" width="750" height="502.535"/>
	<rect y="-1.268" style="fill:#FFFFFF;" width="750" height="502.535"/>
	<g style="opacity:0.86;">
		<g>
			<g>
				<g style="opacity:0.68;">
					<g style="opacity:0.47;">
						<path style="fill:#E1E2FE;" d="M708.523,223.586c-3.235-31.301-18.797-62.654-45.75-85.061
							c-41.998-34.914-105.528-43.714-161.207-35.643c-23.322,3.381-46.449,9.369-70.329,7.484
							c-34.828-2.749-65.507-21.594-97.217-35.409c-43.165-18.804-92.644-28.925-138.534-20.743
							c-52.03,9.277-94.69,44.322-99.78,90.819c-2.306,21.069,21.13,58.186,13.734,78.153
							c-7.502,20.252-62.276,82.282-60.926,129.465c1.345,47.006,13.96,61.626,31.787,85.516h14.25h536.981h30.905
							c11.1-24.206,19.797-43.567,6.8-75.355c-10.384-25.398,17.828-46.315,28.743-69.957
							C707.694,271.816,710.892,246.512,708.523,223.586z"/>
					</g>
				</g>
				<g style="opacity:0.41;">
					<path style="fill:#E1E2FE;" d="M47.206,232.968c-5.19-9.895-1.157-22.011,9.008-27.063c10.165-5.052,29.674-4.636,34.864,5.258
						c5.19,9.895-10.456,18.343-16.849,27.546C65.313,251.545,52.395,242.863,47.206,232.968z"/>
				</g>
				<g style="opacity:0.41;">
					<path style="fill:#E1E2FE;" d="M703.718,333.768c5.518,4.006,6.656,11.608,2.541,16.98
						c-4.115,5.372-14.784,10.212-20.303,6.205c-5.518-4.006,0.632-12.638,1.569-19.277
						C688.833,328.418,698.2,329.762,703.718,333.768z"/>
				</g>
				<g style="opacity:0.41;">
					<path style="fill:#E1E2FE;" d="M422.208,67.158c5.364-7.955,16.158-10.263,24.108-5.155
						c7.951,5.108,15.571,19.246,10.207,27.201c-5.364,7.955-18.109,0.381-27.662-0.248
						C415.539,88.077,416.844,75.113,422.208,67.158z"/>
				</g>
			</g>
			<g style="opacity:0.43;">
				<g>
					<path style="fill:#E1E2FE;" d="M644.303,410.475c5.672-27.453-3.421-50.871-5.689-77.79
						c-2.147-25.486,7.152-46.919,12.311-71.193c4.591-21.603,3.061-46.071-2.702-67.303c-7.868-28.987-25.99-55.829-52.099-72.192
						c-40.682-25.497-94.938-22.495-139.876-4.956c-18.823,7.346-37.053,17.121-57.211,19.593
						c-29.4,3.606-58.016-8.73-86.656-16.131c-38.986-10.074-81.783-10.821-118.567,5.079
						c-41.706,18.028-71.361,58.724-67.896,103.547c1.57,20.31,9.601,40.353,6.758,60.529
						c-2.883,20.463-15.372,37.582-21.983,56.855c-9.023,26.305-9.845,64.965,4.662,91.656h519.18
						C639.016,429.441,642.316,420.095,644.303,410.475z"/>
				</g>
			</g>
			<g>
				<g>
					<g style="opacity:0.47;">
						<path style="fill:#E1E2FE;" d="M547.763,324.464c-1.657-16.586-9.63-33.199-23.439-45.073
							c-21.517-18.5-54.064-23.163-82.59-18.887c-11.948,1.791-23.797,4.965-36.031,3.966
							c-17.843-1.457-33.561-11.443-49.806-18.762c-22.114-9.964-47.464-15.327-70.974-10.991
							c-26.656,4.916-48.512,23.486-51.119,48.124c-1.182,11.164,10.826,30.832,7.036,41.412
							c-3.844,10.731-31.905,43.6-31.214,68.602c0.689,24.908,7.152,32.655,16.285,45.314h7.3h275.106h15.833
							c5.687-12.827,10.142-23.086,3.484-39.929c-5.32-13.458,9.134-24.542,14.726-37.069
							C547.338,350.021,548.976,336.612,547.763,324.464z"/>
					</g>
				</g>
			</g>
		</g>
	</g>
</g>
<g id="OBJECTS">
	<g>
		<g>
			<g>
				<path style="fill:#353148;" d="M371.771,232.861l-8.726-15.114c2.063-4.903,5.519-15.227,3.227-25.234
					c-2.328-10.163-12.301-16.668-22.591-14.987c-26.108-29.57-55.024-10.09-62.285-4.357c-2.556-1.924-5.602-3.284-8.986-3.839
					c-11.081-1.818-21.524,5.605-23.325,16.58c-1.615,9.841,4.278,19.175,13.5,22.314c-4.628,1.803-8.812,4.942-11.734,9.114
					c-5.572,7.957-6.302,19.2-1.796,27.655c1.35,2.532,3.184,5.064,2.984,7.979c-0.162,2.368-1.705,4.318-2.517,6.465
					c-0.921,2.438-1.46,5.05-1.684,7.641c-1.402,16.233,10.487,32.194,28.126,37.577c12.234,3.734,24.569,1.917,33.859-3.805
					c8.95-5.514,18.663-9.986,28.61-14.041c3.824,2.069,6.824,3.514,6.824,3.514l12.083-1.248c6.411,0.11,2.079-9.435,4.7-17.947
					c1.098-1.634,2.044-3.375,2.819-5.216c0.929-1.098,2.069-2.13,3.503-3.056C374.004,259.212,380.347,245.754,371.771,232.861z"/>
				<g>
					<path style="opacity:0.47;fill:#F7C9BF;" d="M377.103,256.707L377.103,256.707l-4.384-9.041c0,0-2.188-5.658-7.417-10.073
						l-10.951-6.105c-1.734-0.967-3.944-0.547-5.132,1.044c-0.018,0.023-0.035,0.047-0.053,0.072
						c-1.9,2.633-5.466,3.132-8.283,4.236c-1.598,0.627-3.167,1.578-3.99,3.084c-0.65,1.191-0.763,2.598-0.742,3.954
						c0.057,3.703,1.017,7.293,1.48,10.95c0.411,3.243,0.352,7.384,4.25,8.406c1.178,0.309,2.424,0.24,3.591-0.106l2.049-0.607
						l6.688,12.789l16.907,70.004l27.931-26.086L377.103,256.707z"/>
					<g>
						<path style="fill:#D4D8DF;" d="M351.483,237.515l-5.561,22.489c-0.362,1.462,0.539,2.955,2.001,3.316l2.81,0.695
							c1.462,0.362,2.955-0.539,3.316-2.001l4.793-19.383c-0.867-0.51-2.795-1.654-5.238-3.172
							C352.652,238.867,351.974,238.186,351.483,237.515z"/>
					</g>
					<path style="fill:#D4D8DF;" d="M362.158,217.816l-2.81-0.695c-1.462-0.362-2.955,0.539-3.316,2.001l-3.194,12.916
						c0.662-0.044,1.483,0.07,2.513,0.45c1.669,0.616,3.587,1.608,5.353,2.614l3.455-13.97
						C364.521,219.67,363.62,218.178,362.158,217.816z"/>
					<path style="fill:#F7C9BF;" d="M436.006,248.677c-1.099-4.591-1.573-9.328-3.18-13.791c-0.589-1.635-1.361-3.27-2.678-4.402
						c-1.667-1.433-3.978-1.863-6.176-1.891c-3.875-0.049-8.374,0.967-11.842-1.329c-0.033-0.022-0.065-0.042-0.096-0.063
						c-2.144-1.369-4.982-0.872-6.623,1.072l-10.36,12.27c-4.268,7.657-4.331,15.427-4.331,15.427l-1.163,12.817l1.139,48.559
						l-4.812-2.076c-20.948-36.215-36.57-38.297-36.57-38.297c1.42,15.67,23.781,95.283,23.781,95.283l18.765,22.659l38.816-60.316
						l-4.057-51.98l-0.971-19.853l4.717-0.594c1.556-0.113,3.079-0.595,4.351-1.498
						C438.925,257.684,436.981,252.749,436.006,248.677z"/>
					<g>
						<g>
							<g>
								<path style="fill:#FFFFFF;" d="M518.765,250.866l-112.217-0.173c-2.863-0.004-5.182-1.791-5.179-3.99l0.104-66.976
									l0.012-7.536c0.003-2.199,2.328-3.978,5.191-3.974l112.217,0.173c2.864,0.005,5.182,1.791,5.179,3.99l-0.115,74.512
									C523.952,249.091,521.628,250.87,518.765,250.866z"/>
								<path style="fill:#F9CAD0;" d="M401.466,183.905l0.018-11.714c0.003-2.199,2.328-3.978,5.191-3.974l112.217,0.173
									c2.864,0.005,5.182,1.791,5.179,3.99l-0.017,11.203"/>
								<path style="fill:#FFFFFF;" d="M410.327,178.919c-0.002,0-0.003,0-0.005,0c-1.338-0.002-2.425-1.092-2.424-2.43
									c0.003-1.337,1.092-2.424,2.428-2.424c0.001,0,0.003,0,0.004,0c1.339,0.003,2.426,1.093,2.423,2.431
									c-0.001,0.648-0.255,1.257-0.714,1.715C411.581,178.667,410.974,178.919,410.327,178.919z M410.326,175.065
									c-0.786,0-1.427,0.639-1.428,1.425c-0.001,0.787,0.639,1.428,1.426,1.429c0.001,0,0.002,0,0.002,0
									c0.381,0,0.737-0.147,1.007-0.416c0.27-0.269,0.419-0.627,0.42-1.009c0.001-0.787-0.638-1.428-1.425-1.429
									C410.327,175.065,410.327,175.065,410.326,175.065z"/>
								<path style="fill:#FFFFFF;" d="M417.557,178.93c-0.002,0-0.003,0-0.005,0c-1.337-0.002-2.424-1.092-2.423-2.43
									c0.003-1.337,1.092-2.424,2.428-2.424c0.001,0,0.003,0,0.004,0c1.337,0.002,2.424,1.093,2.423,2.431v0
									C419.98,177.844,418.893,178.93,417.557,178.93z M417.557,175.076c-0.786,0-1.427,0.639-1.428,1.425
									c-0.001,0.787,0.639,1.428,1.425,1.429c0.001,0,0.002,0,0.002,0c0.786,0,1.427-0.639,1.428-1.425
									c0-0.787-0.639-1.428-1.425-1.429C417.558,175.076,417.558,175.076,417.557,175.076z"/>
								<path style="fill:#FFFFFF;" d="M424.65,178.941c-0.001,0-0.003,0-0.004,0c-1.338-0.002-2.425-1.093-2.424-2.431
									c0.003-1.337,1.091-2.423,2.427-2.423c0.661,0.008,1.261,0.253,1.72,0.713c0.458,0.459,0.709,1.069,0.708,1.717l-0.5-0.001
									l0.5,0.001C427.074,177.855,425.986,178.941,424.65,178.941z M424.65,175.087c-0.786,0-1.427,0.639-1.428,1.425
									c-0.001,0.787,0.639,1.428,1.426,1.429c0.001,0,0.001,0,0.002,0c0.785,0,1.426-0.639,1.427-1.425
									c0.001-0.381-0.147-0.739-0.416-1.009c-0.27-0.27-0.627-0.419-1.009-0.419C424.651,175.087,424.65,175.087,424.65,175.087z"
									/>
								<path style="opacity:0.63;fill:#353148;" d="M507.472,204.641h-0.001l-49.15-0.076c-0.276,0-0.499-0.225-0.499-0.501
									c0-0.276,0.225-0.499,0.5-0.499h0.001l49.15,0.076c0.276,0.001,0.499,0.225,0.499,0.501
									C507.972,204.418,507.747,204.641,507.472,204.641z"/>
								<path style="opacity:0.63;fill:#353148;" d="M482.861,226.21L482.861,226.21l-24.575-0.038
									c-0.276-0.001-0.499-0.225-0.499-0.501c0-0.276,0.225-0.499,0.5-0.499h0.001l24.574,0.038c0.276,0,0.499,0.225,0.499,0.501
									C483.361,225.987,483.137,226.21,482.861,226.21z"/>
								<path style="opacity:0.63;fill:#353148;" d="M472.588,211.075L472.588,211.075l-14.285-0.028
									c-0.276-0.001-0.5-0.225-0.499-0.501c0.001-0.276,0.225-0.499,0.5-0.499h0.001l14.284,0.028
									c0.276,0.001,0.5,0.225,0.499,0.501C473.087,210.852,472.863,211.075,472.588,211.075z"/>
								<path style="opacity:0.63;fill:#353148;" d="M507.453,211.123L507.453,211.123l-31.424-0.028c-0.276,0-0.5-0.224-0.5-0.5
									c0-0.276,0.224-0.5,0.5-0.5l0,0l31.424,0.028c0.276,0,0.5,0.224,0.5,0.5C507.953,210.899,507.729,211.123,507.453,211.123z"
									/>
								<path style="opacity:0.63;fill:#353148;" d="M486.088,218.743C486.088,218.743,486.088,218.743,486.088,218.743
									l-27.785-0.028c-0.275-0.001-0.499-0.225-0.499-0.501c0-0.276,0.224-0.499,0.5-0.499c0,0,0,0,0.001,0l27.784,0.028
									c0.275,0,0.499,0.225,0.499,0.5C486.588,218.519,486.364,218.743,486.088,218.743z"/>
								<path style="opacity:0.63;fill:#353148;" d="M507.453,218.79h-0.001l-18.349-0.028c-0.276-0.001-0.499-0.225-0.499-0.501
									c0-0.276,0.225-0.499,0.5-0.499h0.001l18.349,0.028c0.276,0.001,0.499,0.225,0.499,0.501
									C507.953,218.567,507.728,218.79,507.453,218.79z"/>
							</g>
							<g>
								<rect x="414.578" y="195.051" style="fill:#FFAAB5;" width="36" height="27.135"/>
								<g>
									<circle style="fill:#708CF5;" cx="432.578" cy="226.372" r="12.31"/>
									<g>
										<path style="fill:#FFFFFF;" d="M438.83,226.872h-12.505c-0.276,0-0.5-0.224-0.5-0.5c0-0.276,0.224-0.5,0.5-0.5h12.505
											c0.276,0,0.5,0.224,0.5,0.5C439.33,226.648,439.106,226.872,438.83,226.872z"/>
										<path style="fill:#FFFFFF;" d="M432.577,233.124c-0.276,0-0.5-0.224-0.5-0.5v-12.505c0-0.276,0.224-0.5,0.5-0.5
											c0.276,0,0.5,0.224,0.5,0.5v12.505C433.077,232.901,432.853,233.124,432.577,233.124z"/>
									</g>
								</g>
							</g>
						</g>
						<path style="fill:#F7C9BF;" d="M410.559,258.441c2.742-12.529-4.754-18.705-4.754-18.705s2.308-2.827,5.457-6.936
							c2.464-3.216,2.12-6.316,1.855-7.511c-0.083-0.372-0.25-0.708-0.508-0.988c-0.823-0.894-3.039-2.474-6.734,0.732
							c-1.941,1.685-4.055,4.071-5.882,6.314c-4.192,5.145-7.244,11.159-8.625,17.65c-0.352,1.652-0.588,3.321-0.615,4.88
							C390.627,260.895,410.559,258.441,410.559,258.441z"/>
					</g>
					<g style="opacity:0.51;">
						<g>
							<path style="fill:#F7C9BF;" d="M499.183,268.966l-7.664-0.948l-16.124-0.283c-6.783-0.119-13.199,2.547-17.878,7.188
								l-49.875,43.386l-9.559,12.208l-9.098,31.705c6.054,9.379,18.755,11.728,27.762,5.132l54.969-68.135l4.663-0.397
								l-5.151,1.768c-0.965,0.331-1.681,1.151-1.88,2.151c-0.18,0.903,0.346,1.798,1.225,2.073
								c3.78,1.184,13.539,3.577,17.719-1.684c5.241-6.596-7.944-12.511-7.944-12.511c5.165,0.413,8.032,5.917,8.032,5.917
								s2.067,1.076,3.797-3.92c1.731-4.996-7.756-10.036-7.756-10.036l2.75,1.465c2.396,1.277,4.265,3.358,5.276,5.878l0.163,0.407
								l0.777-0.792c2.13-2.172,2.732-5.482,1.336-8.185c-1.92-3.719-6.347-5.81-6.347-5.81l10.893,1.215
								c2.008,0.224,7.264,1.089,8.011-2.521C507.36,270.198,501.454,269.246,499.183,268.966z"/>
							<path style="fill:#F7C9BF;" d="M499.183,268.966l-7.664-0.948l-16.124-0.283c-6.783-0.119-13.199,2.547-17.878,7.188
								l-49.875,43.386l-9.559,12.208l-9.098,31.705c6.054,9.379,18.755,11.728,27.762,5.132l54.969-68.135l4.663-0.397
								l-5.151,1.768c-0.965,0.331-1.681,1.151-1.88,2.151c-0.18,0.903,0.346,1.798,1.225,2.073
								c3.78,1.184,13.539,3.577,17.719-1.684c5.241-6.596-7.944-12.511-7.944-12.511c5.165,0.413,8.032,5.917,8.032,5.917
								s2.067,1.076,3.797-3.92c1.731-4.996-7.756-10.036-7.756-10.036l2.75,1.465c2.396,1.277,4.265,3.358,5.276,5.878l0.163,0.407
								l0.777-0.792c2.13-2.172,2.732-5.482,1.336-8.185c-1.92-3.719-6.347-5.81-6.347-5.81l10.893,1.215
								c2.008,0.224,7.264,1.089,8.011-2.521C507.36,270.198,501.454,269.246,499.183,268.966z"/>
							<path style="fill:#FF8970;" d="M477.418,289.909c1.217-0.1,2.354,0.067,3.482,0.373c1.12,0.311,2.19,0.787,3.182,1.391
								c0.971,0.632,1.894,1.348,2.686,2.191c0.422,0.398,0.758,0.87,1.14,1.303c0.349,0.458,0.667,0.938,1.002,1.407
								c0.16,0.225,0.108,0.537-0.117,0.697s-0.537,0.108-0.697-0.117c-0.001-0.001-0.002-0.003-0.003-0.004l-0.03-0.044
								c-0.31-0.448-0.603-0.909-0.925-1.348c-0.354-0.411-0.662-0.867-1.052-1.245c-0.73-0.807-1.581-1.487-2.475-2.094
								c-0.914-0.578-1.902-1.038-2.937-1.345c-1.024-0.305-2.14-0.473-3.163-0.406l-0.038,0.003
								c-0.211,0.014-0.393-0.146-0.406-0.357C477.055,290.106,477.211,289.926,477.418,289.909z"/>
							<path style="fill:#FF8970;" d="M483.221,281.93c1.187,0.169,2.259,0.583,3.282,1.129c1.017,0.549,1.951,1.247,2.781,2.054
								c0.803,0.829,1.543,1.73,2.127,2.727c0.323,0.481,0.545,1.015,0.822,1.522c0.238,0.524,0.442,1.062,0.664,1.594
								c0.106,0.255-0.014,0.547-0.269,0.654c-0.255,0.106-0.547-0.014-0.654-0.269c-0.002-0.004-0.003-0.007-0.004-0.011
								l-0.019-0.049c-0.196-0.508-0.373-1.026-0.583-1.529c-0.247-0.483-0.441-0.999-0.731-1.458
								c-0.521-0.957-1.19-1.82-1.919-2.623c-0.756-0.779-1.612-1.461-2.552-2.007c-0.932-0.541-1.977-0.968-3.009-1.147
								l-0.029-0.005c-0.16-0.028-0.268-0.18-0.24-0.341C482.916,282.014,483.064,281.908,483.221,281.93z"/>
						</g>
						<path style="opacity:0.51;fill:#FF8970;" d="M456.357,299.141l7.907,9.316l7.452-9.237l0,0l-9.74,0.828
							C460.013,300.215,458.093,299.879,456.357,299.141z"/>
					</g>
					<polygon style="opacity:0.33;fill:#FF8970;" points="391.059,344.118 386.963,315.735 391.388,317.645 					"/>
				</g>
				<g>
					<path style="fill:#6A88EA;" d="M349.314,276.972c0,0,15.622,2.082,36.57,38.298c0,0-22.079,23.054-24.012,15.731
						C356.062,309,350.029,284.868,349.314,276.972z"/>
					<polygon style="fill:#5574D8;" points="371.369,328.469 363.292,306.38 375,325.543 					"/>
					<g>
						<path style="fill:#708CF5;" d="M376.994,343.85l-13.702-37.47c-0.21-25.949-12.633-33.954-36.19-33.764l-51.294,0.414
							c-5.712,0.046-10.993,2.046-15.325,5.421c-2.227,1.735-4.199,3.836-5.855,6.218l-0.001-0.001l-0.012,0.021
							c-0.771,1.112-1.467,2.289-2.092,3.517l-30.213,50.807c-2.163,3.637-0.456,8.342,3.535,9.747l0,0l23.695,8.343l0.656,80.347
							h114.065l3.781-58.19l6.357-10.059C379.089,361.781,380.065,352.249,376.994,343.85z"/>
					</g>
					<g>
						<g>
							<path style="fill:#F7C9BF;" d="M342.404,197.901c-0.382-0.76-0.7-1.518-0.974-2.271
								c-4.764,10.236-12.776,16.481-33.371,18.04l-14.838,19.918l1.835-15.027c-3.174-0.718-5.795-1.918-7.967-3.46
								c-3.774,1.338-6.633,4.779-6.994,9.011c-0.491,5.76,3.82,10.875,9.58,11.367l1.988,0.169v40.223
								c0,9.656,7.9,17.556,17.556,17.556h3.263c9.656,0,17.556-7.9,17.556-17.556v-5.807c6.48-1.684,12.156-5.519,16.149-10.76
								c4.513-4.7,7.51-10.915,8.107-17.914l2.219-26.018c0.103-1.202,0.13-2.393,0.089-3.569
								C351.699,206.71,344.8,202.67,342.404,197.901z"/>
							<g>
								<g>
									<g>
										<g>
											<path style="fill:#708CF5;" d="M315.706,305.777v-8.181c0-13.169-10.676-23.845-23.845-23.845h0h-1.482l-13.673,32.877
												l39.304-0.85v-8.181c0-13.169,10.676-23.845,23.845-23.845l0,0"/>
										</g>
									</g>
								</g>
								<path style="fill:#5574D8;" d="M321.846,293.018c0,0.692-0.561,1.253-1.253,1.253c-0.692,0-1.253-0.561-1.253-1.253
									c0-0.692,0.561-1.253,1.253-1.253C321.285,291.765,321.846,292.326,321.846,293.018z"/>
								<path style="fill:#5574D8;" d="M321.846,302.768c0,0.692-0.561,1.253-1.253,1.253c-0.692,0-1.253-0.561-1.253-1.253
									c0-0.692,0.561-1.253,1.253-1.253C321.285,301.515,321.846,302.076,321.846,302.768z"/>
							</g>
							<g>
								<polygon style="fill:#353148;" points="293.221,233.589 293.221,233.589 293.221,233.587 								"/>
								<path style="opacity:0.32;fill:#FF8E77;" d="M294.805,218.493c-0.302,1.327-0.526,2.688-0.645,4.083l-0.939,11.011
									l1.835-15.025C294.969,218.542,294.892,218.513,294.805,218.493z"/>
								<path style="opacity:0.32;fill:#FF8E77;" d="M292.776,238.811c-0.883,10.354,3.669,19.913,11.279,25.88
									c-0.095,6.557,4.535,12.419,11.2,13.64c6.513,1.193,12.792-2.441,15.16-8.361c6.285-1.722,11.779-5.486,15.69-10.576
									c-5.955,6.152-14.523,9.677-23.72,8.893h0c-16.239-1.385-28.28-15.671-26.896-31.91l0.562-6.586l-2.83,3.799
									L292.776,238.811z"/>
							</g>
							<g>
								<path style="fill:#FF8970;" d="M286.86,227.536c-0.196,0-0.383-0.117-0.463-0.31c-0.104-0.255,0.018-0.547,0.272-0.652
									l3.809-1.565l-2.958-4.888c-0.143-0.236-0.067-0.543,0.169-0.686c0.235-0.141,0.544-0.068,0.686,0.169l3.261,5.388
									c0.075,0.125,0.093,0.276,0.047,0.415c-0.046,0.139-0.149,0.251-0.284,0.306l-4.349,1.787
									C286.988,227.523,286.924,227.536,286.86,227.536z"/>
								<g>
									<g>
										<g>
											<path style="fill:#FF8970;" d="M327.858,260.322c-0.163,0-0.323-0.08-0.419-0.227c-1.559-2.392-4.363-1.721-4.483-1.69
												c-0.272,0.07-0.54-0.096-0.607-0.361c-0.067-0.268,0.093-0.539,0.36-0.607c0.034-0.008,3.612-0.888,5.567,2.112
												c0.15,0.232,0.086,0.541-0.146,0.692C328.047,260.296,327.952,260.322,327.858,260.322z"/>
										</g>
										<g>
											<path style="fill:#FF8E77;" d="M318.596,233.378c0,0,3.859,4.726,8.615,7.764c4.756,3.038-3.11,9.687-10.555,5.475
												C309.211,242.405,314.84,230.617,318.596,233.378z"/>
											<path style="fill:#FFCFC0;" d="M317.439,243.813c-0.09,0-0.18-0.032-0.251-0.096c-0.154-0.139-0.166-0.376-0.027-0.53
												c1.193-1.325,1.087-3.374-0.238-4.568c-0.154-0.139-0.166-0.376-0.027-0.53c0.139-0.155,0.376-0.167,0.529-0.028
												c1.633,1.471,1.764,3.996,0.293,5.628C317.643,243.77,317.541,243.813,317.439,243.813z"/>
										</g>
									</g>
									<g>
										<g>
											<g>
												<path style="fill:#353148;" d="M321.707,216.003c0.835,0.355,1.913,0.246,2.961,0.2c1.054-0.068,2.115-0.11,3.037-0.115
													c0.925-0.005,1.987,0.026,3.042,0.084c1.049,0.035,2.134,0.132,2.953-0.231c0.791-0.34,1.109-1.302,0.164-2.479
													c-0.888-1.146-3.202-2.385-6.262-2.377c-3.056,0.023-5.319,1.286-6.161,2.44
													C320.547,214.712,320.903,215.671,321.707,216.003z"/>
											</g>
											<g>
												<path style="fill:#353148;" d="M353.055,216.721c-0.565,0.171-1.254,0.025-1.928-0.078
													c-0.677-0.118-1.359-0.22-1.955-0.287c-0.598-0.068-1.286-0.122-1.972-0.159c-0.68-0.051-1.388-0.064-1.893-0.357
													c-0.488-0.275-0.626-0.92,0.068-1.614c0.654-0.678,2.237-1.317,4.214-1.097c1.974,0.229,3.348,1.204,3.811,2.01
													C353.895,215.968,353.598,216.563,353.055,216.721z"/>
											</g>
										</g>
									</g>
									<path style="fill:#1C191A;" d="M327.658,226.167c-0.158,1.038-1.127,1.751-2.165,1.593
										c-1.038-0.158-1.751-1.127-1.593-2.165c0.158-1.038,1.127-1.751,2.165-1.593
										C327.102,224.16,327.815,225.129,327.658,226.167z"/>
									<path style="fill:#1C191A;" d="M349.382,228.05c-0.158,1.038-1.127,1.751-2.165,1.593
										c-1.038-0.158-1.751-1.127-1.593-2.165c0.158-1.038,1.127-1.751,2.165-1.593
										C348.826,226.043,349.54,227.012,349.382,228.05z"/>
									<path style="fill:#FF8970;" d="M328.234,228.583c-0.088,0-0.176-0.022-0.256-0.07c-1.853-1.105-4.738-0.31-4.769-0.303
										c-0.265,0.075-0.542-0.08-0.616-0.345c-0.075-0.265,0.078-0.542,0.344-0.617c0.136-0.039,3.327-0.921,5.554,0.405
										c0.237,0.142,0.315,0.449,0.174,0.686C328.57,228.496,328.404,228.583,328.234,228.583z"/>
									<path style="fill:#FF8970;" d="M349.591,230.59c-0.088,0-0.176-0.022-0.256-0.071c-1.859-1.108-4.741-0.311-4.769-0.302
										c-0.27,0.078-0.543-0.079-0.618-0.345c-0.075-0.266,0.079-0.542,0.345-0.617c0.136-0.038,3.329-0.922,5.554,0.406
										c0.237,0.141,0.315,0.448,0.174,0.686C349.927,230.503,349.761,230.59,349.591,230.59z"/>
								</g>
								<path style="fill:#F7EEE6;" d="M291.998,231.409c-0.241,1.316-1.503,2.187-2.819,1.946
									c-1.316-0.241-2.187-1.503-1.946-2.819c0.241-1.316,1.503-2.187,2.819-1.946
									C291.367,228.831,292.239,230.093,291.998,231.409z"/>
								<path style="fill:#FFFFFF;" d="M323.274,236.942c-0.64,0-1.282-0.058-1.924-0.176c-5.725-1.048-9.529-6.558-8.481-12.283
									c1.05-5.725,6.566-9.531,12.283-8.48c2.773,0.507,5.183,2.064,6.784,4.385c1.602,2.32,2.204,5.124,1.696,7.898
									c-0.508,2.773-2.064,5.183-4.385,6.785C327.465,236.302,325.396,236.942,323.274,236.942z M323.248,217.83
									c-4.049,0-7.656,2.893-8.412,7.014c-0.85,4.64,2.234,9.106,6.874,9.956c2.252,0.414,4.522-0.077,6.401-1.374
									c1.881-1.298,3.143-3.251,3.555-5.499l0,0c0.411-2.248-0.077-4.521-1.375-6.401c-1.298-1.88-3.251-3.143-5.498-3.554
									C324.274,217.876,323.757,217.83,323.248,217.83z"/>
								<path style="fill:#FFFFFF;" d="M348.96,238.665c-0.639,0-1.281-0.058-1.923-0.176c-5.725-1.048-9.529-6.559-8.481-12.283
									c1.049-5.725,6.566-9.531,12.283-8.48c5.725,1.048,9.528,6.559,8.48,12.283c-0.508,2.773-2.064,5.183-4.385,6.784
									C353.151,238.024,351.082,238.665,348.96,238.665z M348.935,219.551c-4.049,0-7.656,2.893-8.412,7.015
									c-0.85,4.64,2.234,9.106,6.874,9.956c2.252,0.413,4.521-0.077,6.401-1.375c1.881-1.298,3.142-3.252,3.555-5.499
									c0.85-4.64-2.234-9.106-6.873-9.956C349.961,219.597,349.443,219.551,348.935,219.551z"/>
								<g>
									<path style="fill:#F7C9BF;" d="M332.573,238.446c1.801,0.309,3.204,0.828,4.981-0.077c1.653-0.842,3.123-2.777,2.818-4.708
										c-0.135-0.853-0.784-1.543-1.613-1.786l-1.689-0.496l0.146-10.116"/>
									<path style="fill:#FF8970;" d="M335.467,239.376c-0.725,0-1.426-0.139-2.146-0.281c-0.269-0.053-0.545-0.108-0.832-0.157
										c-0.272-0.046-0.454-0.305-0.408-0.577c0.047-0.273,0.3-0.454,0.578-0.408c0.295,0.05,0.579,0.107,0.856,0.162
										c1.382,0.273,2.476,0.49,3.814-0.191c1.44-0.735,2.824-2.451,2.55-4.184c-0.102-0.647-0.597-1.191-1.26-1.385l-2.054-0.603
										l0.151-10.496c0.004-0.275,0.249-0.506,0.507-0.493c0.276,0.004,0.497,0.231,0.493,0.507l-0.14,9.736l1.323,0.388
										c1.032,0.303,1.805,1.162,1.967,2.189c0.348,2.199-1.329,4.337-3.084,5.231
										C336.955,239.235,336.198,239.376,335.467,239.376z"/>
								</g>
								<path style="fill:#FFFFFF;" d="M338.432,229.173c-2.45-2.565-5.024-0.707-5.132-0.626l-1.191-1.605
									c1.408-1.046,4.845-2.213,7.771,0.85L338.432,229.173z"/>
							</g>
						</g>
					</g>
					<path style="fill:#5574D8;" d="M249.54,357.104l16.632,5.281c1.163,0.369,2.401-0.294,2.738-1.466l5.737-19.933l-1.015,23.713
						c-0.082,1.915-1.946,3.241-3.782,2.69l-20.31-6.094V357.104z"/>
				</g>
				<g>
					<g>
						<path style="fill:#F7C9BF;" d="M352.064,416.098l-3.666-6.797l-9.107-13.308c-3.488-5.097-8.683-8.607-14.486-10.047
							l-65.981-15.9l3.183-7.29c0,0-0.273-0.57-0.775-1.536l-35.386-12.459c-7.747,17.708-13.626,31.506-13.626,31.506
							c-0.148,0.37-0.284,0.742-0.407,1.115c-3.905,11.789,4.885,24.012,17.278,24.81l78.463,5.053
							c-0.1,0.032-0.205,0.046-0.302,0.09c-0.84,0.377-1.265,1.323-0.981,2.199c1.224,3.767,4.925,13.109,11.635,13.47
							c8.413,0.452,5.599-13.721,5.599-13.721c2.655,4.45-0.173,9.974-0.173,9.974s0.319,2.308,5.395,0.826
							c5.076-1.482,3.691-12.135,3.691-12.135l0.398,3.09c0.347,2.693-0.268,5.422-1.736,7.706l-0.237,0.368l1.096,0.175
							c2.915,0.465,5.901-0.849,7.329-3.432c2.07-3.746,1.178-8.758,1.178-8.758l5.318,9.584c0.98,1.767,3.319,6.553,6.694,5.07
							C355.794,423.478,353.15,418.112,352.064,416.098z M310.092,411.624c-0.142-0.102-0.299-0.17-0.454-0.243l1.88,0.121
							l0.079-0.152l2.92,3.449L310.092,411.624z"/>
						<polyline style="opacity:0.32;fill:#FF8E77;" points="262.006,362.756 241.765,366 258.823,370.046 						"/>
						<g>
							<g>
								<path style="fill:none;" d="M311.518,411.502l-1.88-0.121c0.155,0.073,0.312,0.141,0.454,0.243l4.424,3.175l-2.92-3.449
									L311.518,411.502z"/>
							</g>
							<path style="fill:#FF8970;" d="M322.385,410.483c0.786,0.934,1.309,1.958,1.712,3.055c0.395,1.093,0.627,2.241,0.709,3.4
								c0.047,1.158-0.002,2.324-0.231,3.459c-0.08,0.575-0.27,1.121-0.401,1.684c-0.172,0.55-0.378,1.087-0.567,1.632
								c-0.09,0.261-0.375,0.399-0.636,0.308c-0.261-0.09-0.399-0.375-0.308-0.636c0-0.001,0.001-0.003,0.001-0.004l0.018-0.05
								c0.186-0.512,0.392-1.018,0.564-1.535c0.13-0.527,0.323-1.042,0.405-1.578c0.235-1.063,0.297-2.15,0.274-3.23
								c-0.058-1.08-0.255-2.151-0.604-3.174c-0.344-1.012-0.854-2.018-1.5-2.813l-0.024-0.029
								c-0.133-0.164-0.108-0.405,0.056-0.538C322.014,410.301,322.251,410.324,322.385,410.483z"/>
							<path style="fill:#FF8970;" d="M332.25,410.593c0.549,1.065,0.833,2.179,0.981,3.329c0.141,1.147,0.113,2.313-0.064,3.457
								c-0.211,1.135-0.517,2.26-0.991,3.314c-0.205,0.542-0.512,1.032-0.765,1.551c-0.289,0.497-0.61,0.975-0.915,1.465
								c-0.146,0.234-0.454,0.306-0.688,0.159c-0.234-0.146-0.306-0.454-0.16-0.689c0.002-0.003,0.004-0.007,0.006-0.01l0.029-0.044
								c0.301-0.454,0.62-0.898,0.909-1.36c0.251-0.481,0.559-0.938,0.765-1.441c0.479-0.979,0.795-2.024,1.027-3.084
								c0.198-1.067,0.258-2.16,0.158-3.243c-0.099-1.073-0.356-2.172-0.807-3.117l-0.013-0.026
								c-0.07-0.147-0.008-0.323,0.139-0.393C332.006,410.393,332.178,410.452,332.25,410.593z"/>
							<path style="opacity:0.4;fill:#FF8970;" d="M303.161,398.769l-3.261,11.973l11.829,0.775l0,0l-6.16-7.59
								C304.328,402.396,303.526,400.62,303.161,398.769z"/>
						</g>
					</g>
					<g style="opacity:0.51;">
						<g>
							<path style="fill:#F7C9BF;" d="M352.64,354.794l-6.423-4.287l-14.281-7.49c-6.008-3.151-12.938-3.648-19.203-1.601
								l-64.043,16.384l-14.022,6.619l-22.36,24.249c1.2,11.099,11.496,18.898,22.505,17.047l79.703-36.214l4.345,1.739
								l-5.396-0.732c-1.011-0.137-2.019,0.274-2.646,1.079c-0.566,0.726-0.497,1.762,0.164,2.402
								c2.846,2.755,10.493,9.273,16.59,6.448c7.644-3.542-1.483-14.745-1.483-14.745c4.43,2.687,4.521,8.893,4.521,8.893
								s1.364,1.89,5.153-1.798c3.789-3.688-2.426-12.45-2.426-12.45l1.8,2.543c1.568,2.216,2.304,4.915,2.077,7.621l-0.037,0.437
								l1.05-0.359c2.878-0.984,4.901-3.673,4.867-6.714c-0.047-4.185-3.064-8.041-3.064-8.041l9.189,5.975
								c1.694,1.101,6.002,4.234,8.29,1.342C359.394,359.566,354.544,356.065,352.64,354.794z"/>
							<path style="fill:#F7C9BF;" d="M352.64,354.794l-6.423-4.287l-14.281-7.49c-6.008-3.151-12.938-3.648-19.203-1.601
								l-64.043,16.384l-14.022,6.619l-22.36,24.249c1.2,11.099,11.496,18.898,22.505,17.047l79.703-36.214l4.345,1.739
								l-5.396-0.732c-1.011-0.137-2.019,0.274-2.646,1.079c-0.566,0.726-0.497,1.762,0.164,2.402
								c2.846,2.755,10.493,9.273,16.59,6.448c7.644-3.542-1.483-14.745-1.483-14.745c4.43,2.687,4.521,8.893,4.521,8.893
								s1.364,1.89,5.153-1.798c3.789-3.688-2.426-12.45-2.426-12.45l1.8,2.543c1.568,2.216,2.304,4.915,2.077,7.621l-0.037,0.437
								l1.05-0.359c2.878-0.984,4.901-3.673,4.867-6.714c-0.047-4.185-3.064-8.041-3.064-8.041l9.189,5.975
								c1.694,1.101,6.002,4.234,8.29,1.342C359.394,359.566,354.544,356.065,352.64,354.794z"/>
							<path style="fill:#FF8970;" d="M323.791,363.741c1.133,0.457,2.074,1.117,2.944,1.897c0.861,0.78,1.604,1.686,2.219,2.671
								c0.584,1.001,1.087,2.054,1.417,3.164c0.199,0.545,0.287,1.117,0.434,1.676c0.106,0.566,0.175,1.138,0.263,1.707
								c0.042,0.273-0.144,0.528-0.417,0.57c-0.273,0.042-0.528-0.144-0.57-0.417c0-0.002-0.001-0.003-0.001-0.005l-0.007-0.053
								c-0.076-0.539-0.131-1.083-0.221-1.62c-0.131-0.526-0.203-1.072-0.382-1.584c-0.29-1.049-0.745-2.038-1.272-2.982
								c-0.557-0.927-1.234-1.781-2.021-2.521c-0.778-0.733-1.7-1.383-2.644-1.782l-0.035-0.015
								c-0.194-0.082-0.285-0.307-0.203-0.501C323.377,363.754,323.598,363.663,323.791,363.741z"/>
							<path style="fill:#FF8970;" d="M332.557,359.215c0.984,0.684,1.757,1.534,2.427,2.482c0.662,0.947,1.183,1.99,1.563,3.084
								c0.346,1.102,0.602,2.238,0.677,3.392c0.073,0.575,0.031,1.152,0.051,1.729c-0.022,0.575-0.082,1.148-0.122,1.723
								c-0.019,0.275-0.258,0.483-0.534,0.464c-0.275-0.019-0.483-0.258-0.464-0.534c0-0.004,0-0.008,0.001-0.011l0.005-0.052
								c0.053-0.542,0.127-1.084,0.165-1.627c-0.004-0.543,0.055-1.091,0.001-1.632c-0.036-1.089-0.246-2.16-0.538-3.206
								c-0.325-1.036-0.784-2.029-1.379-2.939c-0.59-0.902-1.333-1.752-2.174-2.375l-0.024-0.017
								c-0.131-0.097-0.158-0.281-0.061-0.412C332.247,359.153,332.427,359.125,332.557,359.215z"/>
						</g>
						<path style="opacity:0.51;fill:#FF8970;" d="M300.827,362.537l2.884,11.874l10.806-4.91l0,0l-9.075-3.632
							C303.612,365.138,302.046,363.977,300.827,362.537z"/>
					</g>
				</g>
			</g>
			<g>
				<g>
					<path style="fill:#B3BECC;" d="M520.542,324.616H408.341c-4.012,0-7.531,2.679-8.598,6.547l-25.847,93.697h-3.191h-71.983
						c-1.368,0-2.184,1.525-1.425,2.663l5.936,8.904h67.472h128.197l30.242-100.23C530.884,330.429,526.566,324.616,520.542,324.616
						z"/>
					<path style="fill:#D4D8DF;" d="M508.541,436.658H380.344l29.038-105.263c1.067-3.868,4.586-6.547,8.598-6.547H530.18
						c6.025,0,10.342,5.813,8.602,11.58L508.541,436.658z"/>
					<path style="fill:#FFFFFF;" d="M461.582,375.452c5.113,0,9.273,4.16,9.273,9.272v1.784c0,5.113-4.16,9.273-9.273,9.273h-1.784
						c-5.113,0-9.273-4.16-9.273-9.273v-1.784c0-5.113,4.16-9.272,9.273-9.272H461.582 M461.582,373.086h-1.784
						c-6.401,0-11.639,5.237-11.639,11.639v1.784c0,6.401,5.237,11.639,11.639,11.639h1.784c6.401,0,11.639-5.237,11.639-11.639
						v-1.784C473.221,378.323,467.984,373.086,461.582,373.086L461.582,373.086z"/>
				</g>
			</g>
		</g>
		<g>
			<path style="fill:#FFFFFF;" d="M180.5,392.027c-0.828,0-1.5-0.672-1.5-1.5v-2.544c0-1.13-1.638-2.39-3.987-2.39h-1.372
				c-3.445,0-6.144-2.105-6.144-4.792v-1.421c0-2.645,2.652-4.717,6.038-4.717h2.005c2.039,0,3.46-1.063,3.46-2.016
				c0-1.66-2.261-3.063-4.938-3.063h-9.123c-0.828,0-1.5-0.672-1.5-1.5c0-0.828,0.672-1.5,1.5-1.5h9.123
				c4.451,0,7.938,2.663,7.938,6.063c0,2.813-2.838,5.016-6.46,5.016h-2.005c-1.739,0-3.038,0.906-3.038,1.717v1.421
				c0,0.846,1.345,1.792,3.144,1.792h1.372c3.918,0,6.987,2.367,6.987,5.39v2.544C182,391.355,181.328,392.027,180.5,392.027z"/>
			<path style="fill:#FFFFFF;" d="M195.422,392.423c-0.828,0-1.5-0.672-1.5-1.5v-1.539c0-0.293-0.709-0.853-1.819-0.853h-0.83
				c-2.417,0-4.31-1.533-4.31-3.491v-0.859c0-1.933,1.865-3.446,4.246-3.446h1.213c0.951,0,1.5-0.476,1.5-0.627
				c0-0.514-0.933-1.261-2.395-1.261h-5.52c-0.828,0-1.5-0.672-1.5-1.5s0.672-1.5,1.5-1.5h5.52c3.025,0,5.395,1.871,5.395,4.261
				c0,2.034-1.977,3.627-4.5,3.627h-1.213c-0.757,0-1.2,0.337-1.25,0.472l0.004,0.834c0.041,0.124,0.511,0.491,1.31,0.491h0.83
				c2.702,0,4.819,1.692,4.819,3.853v1.539C196.922,391.751,196.25,392.423,195.422,392.423z"/>
			<g>
				<path style="fill:#5574D8;" d="M165.655,428.722h-8.668c-7.823,0-14.188-6.364-14.188-14.188v-9.167
					c0-5.457,4.439-9.896,9.896-9.896h10.94v7h-10.94c-1.597,0-2.896,1.3-2.896,2.896v9.167c0,3.963,3.225,7.188,7.188,7.188h8.668
					V428.722z"/>
				<g>
					<path style="fill:#5574D8;" d="M193.594,431.887h-23.429c-5.965,0-10.801-4.836-10.801-10.802v7.914
						c0,5.965,4.836,10.801,10.801,10.801h23.429c5.965,0,10.801-4.836,10.801-10.801v-7.914
						C204.395,427.051,199.559,431.887,193.594,431.887z"/>
					<path style="fill:#708CF5;" d="M197.97,386.854h-30.399c-4.533,0-8.207,3.675-8.207,8.208v26.023
						c0,5.966,4.836,10.802,10.801,10.802h23.429c5.965,0,10.801-4.836,10.801-10.802V393.28
						C204.395,389.731,201.518,386.854,197.97,386.854z"/>
				</g>
			</g>
		</g>
		<rect x="66.849" y="436.352" style="fill:#353148;" width="616.301" height="4.273"/>
	</g>
	<g>
		<g>
			<g>
				<path style="fill:#708CF5;" d="M462.566,91.115H360.025c-5.449,0-9.867,4.466-9.867,9.976v39.078v15.583
					c0,1.661,2,2.476,3.14,1.28l9.787-10.272c0.871-0.915,2.073-1.431,3.329-1.431l96.153-0.113c4.708,0,8.525-3.859,8.525-8.619
					V99.734C471.092,94.974,467.275,91.115,462.566,91.115z"/>
				<path style="fill:#FFFFFF;" d="M419.952,111.572h-43.685c-0.553,0-1-0.448-1-1c0-0.552,0.447-1,1-1h43.685c0.553,0,1,0.448,1,1
					C420.952,111.124,420.505,111.572,419.952,111.572z"/>
				<path style="fill:#FFFFFF;" d="M448.754,111.572h-24.293c-0.553,0-1-0.448-1-1c0-0.552,0.447-1,1-1h24.293c0.553,0,1,0.448,1,1
					C449.754,111.124,449.307,111.572,448.754,111.572z"/>
				<path style="fill:#FFFFFF;" d="M402.361,120.447h-26.095c-0.553,0-1-0.448-1-1c0-0.552,0.447-1,1-1h26.095c0.553,0,1,0.448,1,1
					C403.361,119.999,402.914,120.447,402.361,120.447z"/>
				<path style="fill:#FFFFFF;" d="M447.897,120.447h-39.302c-0.553,0-1-0.448-1-1c0-0.552,0.447-1,1-1h39.302c0.553,0,1,0.448,1,1
					C448.897,119.999,448.449,120.447,447.897,120.447z"/>
				<path style="fill:#FFFFFF;" d="M417.834,129.322h-41.567c-0.553,0-1-0.448-1-1c0-0.552,0.447-1,1-1h41.567c0.553,0,1,0.448,1,1
					C418.834,128.874,418.387,129.322,417.834,129.322z"/>
				<g>
					<path style="fill:#F9CAD0;" d="M336.731,97.762h25.259c0.806,0,1.578,0.328,2.137,0.909l6.284,6.523
						c0.732,0.76,2.016,0.242,2.016-0.813v-9.896V69.668c0-3.499-2.837-6.335-6.336-6.335h-30.366c-2.847,0-5.156,2.308-5.156,5.156
						v23.114C330.57,95.004,333.329,97.762,336.731,97.762z"/>
					<circle style="fill:#FFFFFF;" cx="361.264" cy="81.312" r="2.163"/>
					<circle style="fill:#FFFFFF;" cx="351.128" cy="81.312" r="2.163"/>
					<circle style="fill:#FFFFFF;" cx="340.753" cy="81.312" r="2.163"/>
				</g>
				<g>
					
						<ellipse transform="matrix(0.7071 -0.7071 0.7071 0.7071 69.0106 359.3083)" style="fill:#F9CAD0;" cx="468.229" cy="96.351" rx="13.52" ry="13.52"/>
					<g>
						<g>
							<path style="fill:#FFFFFF;" d="M469.776,102.666h-1.86V91.432l-1.887,1.158v-1.924l1.887-1.258h1.86V102.666z"/>
						</g>
					</g>
				</g>
			</g>
			<g>
				<g>
					<g>
						<path style="fill:#FFFFFF;" d="M587.233,174.595h-85.514c-1.507,0-2.729-1.222-2.729-2.729v-47.471
							c0-1.507,1.222-2.729,2.729-2.729h85.514c1.507,0,2.729,1.222,2.729,2.729v47.471
							C589.962,173.373,588.74,174.595,587.233,174.595z"/>
						<path style="fill:#FFAAB5;" d="M498.989,128.336v-3.94c0-1.507,1.222-2.729,2.729-2.729h85.514
							c1.507,0,2.729,1.222,2.729,2.729v3.593L498.989,128.336z"/>
						<path style="fill:#EAF0F6;" d="M502.739,126.246c-0.565,0-1.025-0.46-1.025-1.025c0-0.565,0.46-1.025,1.025-1.025
							c0.565,0,1.025,0.46,1.025,1.025C503.764,125.786,503.304,126.246,502.739,126.246z M502.739,124.543
							c-0.374,0-0.678,0.304-0.678,0.678c0,0.374,0.304,0.678,0.678,0.678c0.374,0,0.678-0.304,0.678-0.678
							C503.417,124.848,503.113,124.543,502.739,124.543z"/>
						<path style="fill:#EAF0F6;" d="M505.826,126.246c-0.565,0-1.025-0.46-1.025-1.025c0-0.565,0.46-1.025,1.025-1.025
							c0.565,0,1.025,0.46,1.025,1.025C506.852,125.786,506.392,126.246,505.826,126.246z M505.826,124.543
							c-0.374,0-0.678,0.304-0.678,0.678c0,0.374,0.304,0.678,0.678,0.678c0.374,0,0.678-0.304,0.678-0.678
							C506.504,124.848,506.2,124.543,505.826,124.543z"/>
						<path style="fill:#EAF0F6;" d="M508.758,126.246c-0.565,0-1.025-0.46-1.025-1.025c0-0.565,0.46-1.025,1.025-1.025
							c0.565,0,1.025,0.46,1.025,1.025C509.783,125.786,509.323,126.246,508.758,126.246z M508.758,124.543
							c-0.374,0-0.678,0.304-0.678,0.678c0,0.374,0.304,0.678,0.678,0.678c0.374,0,0.678-0.304,0.678-0.678
							C509.436,124.848,509.132,124.543,508.758,124.543z"/>
						<g>
							<path style="fill:#103463;" d="M578.95,143.431h-43.561c-0.177,0-0.32-0.155-0.32-0.347c0-0.192,0.143-0.347,0.32-0.347
								h43.561c0.177,0,0.32,0.155,0.32,0.347C579.27,143.276,579.127,143.431,578.95,143.431z"/>
							<path style="fill:#103463;" d="M578.95,154.92h-43.561c-0.177,0-0.32-0.155-0.32-0.347c0-0.192,0.143-0.347,0.32-0.347
								h43.561c0.177,0,0.32,0.155,0.32,0.347C579.27,154.764,579.127,154.92,578.95,154.92z"/>
							<path style="fill:#103463;" d="M554.539,148.792h-19.15c-0.177,0-0.32-0.155-0.32-0.347c0-0.192,0.143-0.347,0.32-0.347
								h19.15c0.177,0,0.32,0.155,0.32,0.347C554.859,148.636,554.716,148.792,554.539,148.792z"/>
							<path style="fill:#103463;" d="M578.95,148.792H559.8c-0.177,0-0.32-0.155-0.32-0.347c0-0.192,0.143-0.347,0.32-0.347h19.15
								c0.177,0,0.32,0.155,0.32,0.347C579.27,148.636,579.127,148.792,578.95,148.792z"/>
							<path style="fill:#103463;" d="M554.539,160.926h-19.15c-0.177,0-0.32-0.155-0.32-0.347c0-0.192,0.143-0.347,0.32-0.347
								h19.15c0.177,0,0.32,0.155,0.32,0.347C554.859,160.771,554.716,160.926,554.539,160.926z"/>
							<path style="fill:#103463;" d="M578.95,160.926H559.8c-0.177,0-0.32-0.155-0.32-0.347c0-0.192,0.143-0.347,0.32-0.347h19.15
								c0.177,0,0.32,0.155,0.32,0.347C579.27,160.771,579.127,160.926,578.95,160.926z"/>
						</g>
						<path style="fill:none;stroke:#103463;stroke-linecap:round;stroke-miterlimit:10;" d="M523.611,136.792"/>
						<g>
							<rect x="507.739" y="148.344" style="fill:#708CF5;" width="6.019" height="18"/>
							<rect x="515.151" y="140.349" style="fill:#FFAAB5;" width="6.019" height="25.996"/>
							<rect x="522.739" y="134.403" style="fill:#B69CDC;" width="6.019" height="31.941"/>
						</g>
					</g>
					<g>
						<path style="fill:#708CF5;" d="M608.398,183.476h-16.585c-0.529,0-1.036,0.215-1.403,0.597l-4.126,4.283
							c-0.48,0.499-1.324,0.159-1.324-0.534v-6.498v-16.295c0-2.297,1.862-4.16,4.16-4.16h19.938c1.87,0,3.385,1.516,3.385,3.385
							v15.176C612.443,181.665,610.632,183.476,608.398,183.476z"/>
						<path style="fill:#FFFFFF;" d="M593.71,172.675c0,0.784-0.636,1.42-1.42,1.42s-1.42-0.636-1.42-1.42
							c0-0.784,0.636-1.42,1.42-1.42S593.71,171.89,593.71,172.675z"/>
						<path style="fill:#FFFFFF;" d="M600.365,172.675c0,0.784-0.636,1.42-1.42,1.42c-0.784,0-1.42-0.636-1.42-1.42
							c0-0.784,0.636-1.42,1.42-1.42C599.73,171.255,600.365,171.89,600.365,172.675z"/>
						<path style="fill:#FFFFFF;" d="M607.177,172.675c0,0.784-0.636,1.42-1.42,1.42s-1.42-0.636-1.42-1.42
							c0-0.784,0.636-1.42,1.42-1.42S607.177,171.89,607.177,172.675z"/>
					</g>
				</g>
				<g>
					<rect x="563.056" y="189.451" style="fill:#FFAAB5;" width="14.681" height="11.2"/>
					<rect x="548.376" y="189.451" style="fill:#708CF5;" width="14.681" height="11.2"/>
					<rect x="519.014" y="189.451" style="fill:#FFAAB5;" width="14.681" height="11.2"/>
					<rect x="504.333" y="189.451" style="fill:#708CF5;" width="14.681" height="11.2"/>
					<rect x="533.695" y="189.451" style="fill:#B69CDC;" width="14.681" height="11.2"/>
				</g>
			</g>
		</g>
		<g>
			<g>
				<g style="opacity:0.43;">
					<path style="fill:#B69CDC;" d="M596.447,334.646c0.643,0.472,1.508,0.475,2.154,0.004l25.636-18.69
						c-0.99-1.223-2.503-2.007-4.199-2.007H574.06c-1.418,0-2.679,0.665-3.496,1.697c0.029,0.016,0.062,0.021,0.089,0.042
						L596.447,334.646z"/>
					<path style="fill:#B69CDC;" d="M599.513,335.902c-0.595,0.434-1.291,0.65-1.987,0.65c-0.7,0-1.4-0.219-1.997-0.658
						l-3.915-2.877l-19.779,17.596c-0.015,0.013-0.034,0.018-0.049,0.029c0.426,0.179,0.893,0.279,1.384,0.279h48.698
						c0.276,0,0.542-0.038,0.801-0.098l-19.688-17.451L599.513,335.902z"/>
					<path style="fill:#B69CDC;" d="M590.338,332.079l-20.508-15.07c-0.146,0.441-0.229,0.912-0.229,1.403v28.94
						c0,0.955,0.381,1.819,0.992,2.459c0.04-0.132,0.102-0.257,0.213-0.355L590.338,332.079z"/>
					<path style="fill:#B69CDC;" d="M624.028,349.957c0.044,0.039,0.07,0.09,0.103,0.136c0.793-0.655,1.309-1.633,1.309-2.741
						v-27.996c0-0.729-0.146-1.423-0.408-2.058l-20.767,15.14L624.028,349.957z"/>
				</g>
				<g style="opacity:0.69;">
					<g>
						<path style="fill:#FFFFFF;" d="M658.335,304.521H617.94c-1.621,0-2.94-1.318-2.94-2.939v-24.286
							c0-2.254,1.833-4.087,4.087-4.087h36.883c2.925,0,5.305,2.38,5.305,5.306v23.067
							C661.274,303.202,659.956,304.521,658.335,304.521z M619.087,275.208c-1.15,0-2.087,0.936-2.087,2.087v24.286
							c0,0.518,0.422,0.939,0.94,0.939h40.395c0.517,0,0.939-0.422,0.939-0.939v-23.067c0-1.823-1.482-3.306-3.305-3.306H619.087z"
							/>
						
							<rect x="614.63" y="294.633" transform="matrix(0.7469 -0.6649 0.6649 0.7469 -38.2877 490.6702)" style="fill:#FFFFFF;" width="21.619" height="2"/>
						
							<rect x="649.684" y="285.29" transform="matrix(0.6634 -0.7483 0.7483 0.6634 -2.4989 586.5791)" style="fill:#FFFFFF;" width="1.999" height="21.554"/>
					</g>
					<path style="fill:#FFFFFF;" d="M638.143,292.514c-0.636,0-1.271-0.199-1.813-0.598l-20.451-15.029l1.184-1.611l20.452,15.029
						c0.376,0.274,0.877,0.276,1.251,0.003l20.502-14.946l1.178,1.615l-20.501,14.946
						C639.405,292.317,638.774,292.514,638.143,292.514z"/>
				</g>
				<g>
					<path style="fill:#F9CAD0;" d="M589.743,249.636c0.768,0.564,1.802,0.567,2.574,0.005l30.636-22.336
						c-1.184-1.462-2.991-2.398-5.018-2.398h-54.946c-1.695,0-3.202,0.794-4.178,2.028c0.035,0.019,0.074,0.025,0.107,0.05
						L589.743,249.636z"/>
					<path style="fill:#F9CAD0;" d="M593.407,251.137c-0.711,0.518-1.542,0.777-2.374,0.777c-0.836,0-1.674-0.262-2.386-0.787
						l-4.678-3.438l-23.637,21.029c-0.018,0.016-0.04,0.021-0.058,0.035c0.509,0.214,1.067,0.333,1.654,0.333h58.198
						c0.33,0,0.648-0.046,0.957-0.117l-23.528-20.856L593.407,251.137z"/>
					<path style="fill:#F9CAD0;" d="M582.443,246.569l-24.508-18.01c-0.175,0.528-0.273,1.09-0.273,1.676v34.586
						c0,1.142,0.455,2.173,1.185,2.939c0.048-0.157,0.122-0.307,0.254-0.424L582.443,246.569z"/>
					<path style="fill:#F9CAD0;" d="M622.705,267.934c0.053,0.047,0.083,0.108,0.123,0.163c0.947-0.782,1.564-1.951,1.564-3.276
						v-33.458c0-0.871-0.175-1.701-0.488-2.459l-24.818,18.094L622.705,267.934z"/>
				</g>
				<g>
					<g>
						<g>
							<path style="fill:#708CF5;" d="M551.69,291.504c0.768,0.564,1.802,0.567,2.574,0.005l30.636-22.336
								c-1.184-1.462-2.991-2.398-5.018-2.398h-54.946c-1.695,0-3.202,0.794-4.178,2.028c0.035,0.019,0.074,0.025,0.107,0.05
								L551.69,291.504z"/>
						</g>
						<g>
							<path style="fill:#708CF5;" d="M555.354,293.005c-0.711,0.518-1.542,0.777-2.374,0.777c-0.836,0-1.674-0.262-2.386-0.787
								l-4.678-3.438l-23.637,21.029c-0.018,0.016-0.04,0.021-0.058,0.035c0.509,0.214,1.067,0.333,1.654,0.333h58.198
								c0.33,0,0.648-0.046,0.957-0.117l-23.528-20.856L555.354,293.005z"/>
						</g>
						<g>
							<path style="fill:#708CF5;" d="M544.39,288.436l-24.508-18.01c-0.175,0.528-0.273,1.09-0.273,1.676v34.586
								c0,1.142,0.455,2.173,1.185,2.939c0.048-0.157,0.122-0.307,0.254-0.424L544.39,288.436z"/>
						</g>
						<g>
							<path style="fill:#708CF5;" d="M584.651,309.801c0.053,0.047,0.083,0.108,0.123,0.163c0.947-0.782,1.564-1.951,1.564-3.276
								v-33.458c0-0.871-0.175-1.701-0.488-2.459l-24.818,18.094L584.651,309.801z"/>
						</g>
					</g>
				</g>
				<g>
					
						<ellipse transform="matrix(0.1602 -0.9871 0.9871 0.1602 301.8833 805.0203)" style="fill:#708CF5;" cx="624.036" cy="225.099" rx="11.63" ry="11.63"/>
					<g>
						<g>
							<path style="fill:#FFFFFF;" d="M621.461,229.593h-1.275v-7.697l-1.293,0.794v-1.318l1.293-0.862h1.275V229.593z"/>
							<path style="fill:#FFFFFF;" d="M624.182,229.006c-0.44-0.454-0.659-1.087-0.659-1.899v-4.129c0-0.816,0.221-1.45,0.662-1.902
								c0.441-0.452,1.085-0.678,1.93-0.678c0.849,0,1.494,0.225,1.934,0.675c0.439,0.45,0.659,1.085,0.659,1.906v4.129
								c0,0.816-0.221,1.451-0.662,1.902c-0.441,0.452-1.085,0.678-1.93,0.678C625.266,229.687,624.621,229.46,624.182,229.006z
								 M627.112,228.122c0.214-0.235,0.322-0.574,0.322-1.015v-4.129c0-0.442-0.106-0.78-0.319-1.015
								c-0.212-0.235-0.546-0.353-0.999-0.353c-0.454,0-0.787,0.118-1,0.353c-0.212,0.235-0.319,0.574-0.319,1.015v4.129
								c0,0.441,0.107,0.78,0.322,1.015c0.214,0.235,0.547,0.353,0.997,0.353C626.566,228.475,626.898,228.357,627.112,228.122z"/>
						</g>
					</g>
				</g>
			</g>
			<g>
				<path style="fill:#FFFFFF;" d="M646.655,391.335H566.8c-0.89,0-1.612-0.722-1.612-1.612v-23.459c0-0.89,0.722-1.612,1.612-1.612
					h79.855c0.89,0,1.612,0.722,1.612,1.612v23.459C648.267,390.613,647.545,391.335,646.655,391.335z"/>
				<g>
					<path style="fill:#FFAAB5;" d="M585.197,377.487c0,3.336-2.704,6.041-6.041,6.041s-6.04-2.704-6.04-6.041
						c0-3.336,2.704-6.041,6.04-6.041S585.197,374.151,585.197,377.487z"/>
				</g>
				<path style="opacity:0.63;fill:#353148;" d="M636.741,374.088h-42.509c-0.276,0-0.5-0.224-0.5-0.5s0.224-0.5,0.5-0.5h42.509
					c0.276,0,0.5,0.224,0.5,0.5S637.018,374.088,636.741,374.088z"/>
				<path style="opacity:0.63;fill:#353148;" d="M613.227,379.131h-18.994c-0.276,0-0.5-0.224-0.5-0.5c0-0.276,0.224-0.5,0.5-0.5
					h18.994c0.276,0,0.5,0.224,0.5,0.5C613.727,378.907,613.503,379.131,613.227,379.131z"/>
				<path style="opacity:0.63;fill:#353148;" d="M613.227,384.866h-18.994c-0.276,0-0.5-0.224-0.5-0.5s0.224-0.5,0.5-0.5h18.994
					c0.276,0,0.5,0.224,0.5,0.5S613.503,384.866,613.227,384.866z"/>
				<path style="opacity:0.63;fill:#353148;" d="M636.741,379.131h-18.994c-0.276,0-0.5-0.224-0.5-0.5c0-0.276,0.224-0.5,0.5-0.5
					h18.994c0.276,0,0.5,0.224,0.5,0.5C637.241,378.907,637.018,379.131,636.741,379.131z"/>
			</g>
			<g>
				<path style="fill:#708CF5;" d="M625.125,414.802h-79.855c-0.89,0-1.612-0.722-1.612-1.612V389.73
					c0-0.891,0.722-1.612,1.612-1.612h79.855c0.89,0,1.612,0.722,1.612,1.612v23.459
					C626.737,414.08,626.015,414.802,625.125,414.802z"/>
				<g>
					<path style="fill:#FFAAB5;" d="M563.667,400.954c0,3.336-2.704,6.041-6.041,6.041c-3.336,0-6.04-2.704-6.04-6.041
						c0-3.336,2.704-6.04,6.04-6.04C560.962,394.914,563.667,397.618,563.667,400.954z"/>
				</g>
				<path style="opacity:0.63;fill:#FFFFFF;" d="M615.211,397.555h-42.509c-0.276,0-0.5-0.224-0.5-0.5s0.224-0.5,0.5-0.5h42.509
					c0.276,0,0.5,0.224,0.5,0.5S615.487,397.555,615.211,397.555z"/>
				<path style="opacity:0.63;fill:#FFFFFF;" d="M591.696,402.598h-18.994c-0.276,0-0.5-0.224-0.5-0.5c0-0.276,0.224-0.5,0.5-0.5
					h18.994c0.276,0,0.5,0.224,0.5,0.5C592.196,402.374,591.973,402.598,591.696,402.598z"/>
				<path style="opacity:0.63;fill:#FFFFFF;" d="M591.696,408.333h-18.994c-0.276,0-0.5-0.224-0.5-0.5s0.224-0.5,0.5-0.5h18.994
					c0.276,0,0.5,0.224,0.5,0.5S591.973,408.333,591.696,408.333z"/>
				<path style="opacity:0.63;fill:#FFFFFF;" d="M615.211,402.598h-18.994c-0.276,0-0.5-0.224-0.5-0.5c0-0.276,0.224-0.5,0.5-0.5
					h18.994c0.276,0,0.5,0.224,0.5,0.5C615.711,402.374,615.487,402.598,615.211,402.598z"/>
			</g>
		</g>
		<g>
			<g>
				<g>
					<g>
						<path style="fill:#FFFFFF;" d="M182.548,228.292l0.551,120.188c0.009,1.897-1.522,3.441-3.419,3.45l-71.658,0.328
							c-1.897,0.009-3.441-1.522-3.45-3.419l-0.55-120.188c-0.009-1.897,1.522-3.441,3.419-3.45l71.659-0.328
							C180.994,224.864,182.539,226.395,182.548,228.292z"/>
						<g>
							<g>
								<path style="opacity:0.43;fill:#B69CDC;" d="M158.429,286.089h-29.74c-1.62,0-2.934-1.314-2.934-2.934l0,0
									c0-1.621,1.314-2.934,2.934-2.934h29.74c1.62,0,2.934,1.314,2.934,2.934l0,0
									C161.364,284.775,160.05,286.089,158.429,286.089z"/>
								<g>
									
										<ellipse transform="matrix(0.7071 -0.7071 0.7071 0.7071 -142.1865 177.82)" style="opacity:0.43;fill:#B69CDC;" cx="143.554" cy="260.544" rx="12.451" ry="12.451"/>
									<g>
										<path style="fill:#FFFFFF;" d="M148.04,256.987c0,2.477-2.008,4.486-4.486,4.486c-2.477,0-4.486-2.008-4.486-4.486
											c0-2.477,2.008-4.486,4.486-4.486C146.032,252.501,148.04,254.51,148.04,256.987z"/>
										<path style="fill:#FFFFFF;" d="M146.61,268.587h-6.112c-1.986,0-3.595-1.61-3.595-3.595l0,0
											c0-2.777,2.252-5.029,5.029-5.029h3.383c2.701,0,4.89,2.19,4.89,4.89v0.139
											C150.205,266.978,148.596,268.587,146.61,268.587z"/>
									</g>
								</g>
							</g>
							<g style="opacity:0.43;">
								<path style="fill:#B69CDC;" d="M158.429,295.65h-29.74c-1.62,0-2.934-1.314-2.934-2.934l0,0c0-1.62,1.314-2.934,2.934-2.934
									h29.74c1.62,0,2.934,1.314,2.934,2.934l0,0C161.364,294.336,160.05,295.65,158.429,295.65z"/>
							</g>
							<path style="fill:#F7A9B4;" d="M155.655,314.342h-22.214c-2.689,0-4.869-2.18-4.869-4.869l0,0
								c0-2.689,2.18-4.869,4.869-4.869h22.214c2.689,0,4.869,2.18,4.869,4.869l0,0
								C160.524,312.162,158.344,314.342,155.655,314.342z"/>
						</g>
						<g>
							<path style="fill:#708CF5;" d="M182.811,228.25l0.03,6.526l-78.527,0.36l-0.031-6.695c-0.008-1.816,1.457-3.294,3.272-3.302
								l71.784-0.329C181.248,224.801,182.802,226.341,182.811,228.25z"/>
							<g>
								<path style="fill:#FFFFFF;" d="M173.117,228.671c-0.138,0-0.249-0.111-0.25-0.249c-0.001-0.138,0.11-0.25,0.249-0.251
									l5.89-0.027h0.001c0.138,0,0.249,0.111,0.25,0.249c0.001,0.138-0.11,0.25-0.249,0.251l-5.89,0.027H173.117z"/>
								<path style="fill:#FFFFFF;" d="M173.124,230.176c-0.138,0-0.249-0.111-0.25-0.249c-0.001-0.138,0.11-0.25,0.249-0.251
									l5.89-0.027h0.001c0.138,0,0.249,0.111,0.25,0.249c0.001,0.138-0.11,0.25-0.249,0.251l-5.89,0.027H173.124z"/>
								<path style="fill:#FFFFFF;" d="M173.131,231.681c-0.138,0-0.249-0.111-0.25-0.249c-0.001-0.138,0.11-0.251,0.249-0.251
									l5.89-0.027h0.001c0.138,0,0.249,0.111,0.25,0.249c0.001,0.138-0.11,0.251-0.249,0.251L173.131,231.681L173.131,231.681z"/>
							</g>
							<path style="fill:#FFFFFF;" d="M111.321,233.146c-0.127,0-0.255-0.048-0.352-0.145l-2.149-2.129
								c-0.268-0.267-0.268-0.7-0.004-0.967l2.047-2.066c0.194-0.195,0.513-0.197,0.707-0.003c0.196,0.194,0.198,0.511,0.004,0.707
								l-1.825,1.841l1.924,1.907c0.196,0.194,0.198,0.511,0.004,0.707C111.579,233.097,111.45,233.146,111.321,233.146z"/>
						</g>
						<path style="fill:#708CF5;" d="M179.513,352.143h-71.907c-1.864,0-3.375-1.511-3.375-3.375v-18.94h78.658v18.94
							C182.888,350.632,181.377,352.143,179.513,352.143z"/>
					</g>
					<path style="fill:#FFFFFF;" d="M159.408,339.403H127.71c-0.276,0-0.5-0.224-0.5-0.5c0-0.276,0.224-0.5,0.5-0.5h31.698
						c0.276,0,0.5,0.224,0.5,0.5C159.908,339.18,159.685,339.403,159.408,339.403z"/>
					<path style="fill:#FFFFFF;" d="M152.983,344.206h-18.848c-0.276,0-0.5-0.224-0.5-0.5c0-0.276,0.224-0.5,0.5-0.5h18.848
						c0.276,0,0.5,0.224,0.5,0.5C153.483,343.982,153.26,344.206,152.983,344.206z"/>
				</g>
				<g>
					<path style="opacity:0.47;fill:#E1E2FE;" d="M214.628,284.513l-44.729,0.294c-1.909,0.012-3.466-1.525-3.479-3.433
						l-0.529-80.56c-0.013-1.909,1.525-3.466,3.433-3.479l44.729-0.294c1.909-0.012,3.466,1.525,3.479,3.433l0.529,80.56
						C218.074,282.943,216.536,284.5,214.628,284.513z"/>
					<path style="fill:#FFFFFF;" d="M215.533,283.538l-44.729,0.294c-1.909,0.012-3.466-1.525-3.479-3.434l-0.529-80.56
						c-0.013-1.909,1.525-3.466,3.433-3.479l44.729-0.294c1.909-0.013,3.466,1.525,3.479,3.433l0.529,80.56
						C218.978,281.968,217.441,283.525,215.533,283.538z"/>
					<path style="fill:#F9CAD0;" d="M218.528,212.956l-51.641,0.339l-0.097-14.769c-0.008-1.184,0.946-2.151,2.13-2.158
						l47.309-0.311c1.208-0.008,2.194,0.965,2.202,2.173L218.528,212.956z"/>
					<path style="opacity:0.43;fill:#FFFFFF;" d="M199.839,209.217l-27.71,0.182c-0.579,0.004-1.051-0.462-1.055-1.041v0
						c-0.004-0.579,0.462-1.051,1.041-1.055l27.71-0.182c0.579-0.004,1.051,0.462,1.055,1.041l0,0
						C200.884,208.741,200.418,209.213,199.839,209.217z"/>
					<path style="opacity:0.43;fill:#FFFFFF;" d="M182.104,201.956l-10.165,0.067c-0.365,0.002-0.663-0.292-0.665-0.657l0,0
						c-0.002-0.365,0.292-0.663,0.657-0.665l10.165-0.067c0.365-0.002,0.663,0.292,0.665,0.657l0,0
						C182.763,201.656,182.469,201.954,182.104,201.956z"/>
					<path style="opacity:0.43;fill:#FFFFFF;" d="M182.104,205.399l-10.165,0.067c-0.365,0.002-0.663-0.292-0.665-0.657l0,0
						c-0.002-0.365,0.292-0.663,0.657-0.665l10.165-0.067c0.365-0.002,0.663,0.292,0.665,0.657l0,0
						C182.763,205.099,182.469,205.397,182.104,205.399z"/>
					<g>
						<g>
							<g>
								<g>
									<path style="fill:#F9CAD0;" d="M181.408,231.325l-7.657,0.05c-1.205,0.008-2.189-0.963-2.197-2.168l-0.05-7.657
										c-0.008-1.205,0.963-2.189,2.168-2.197l7.657-0.05c1.205-0.008,2.189,0.963,2.196,2.168l0.05,7.657
										C183.583,230.333,182.613,231.317,181.408,231.325z"/>
								</g>
								<g style="opacity:0.26;">
									<path style="fill:#3E479B;" d="M201.54,223.228l-14.831,0.097c-0.595,0.004-1.081-0.476-1.085-1.071l0,0
										c-0.004-0.595,0.476-1.081,1.071-1.085l14.831-0.097c0.595-0.004,1.081,0.476,1.085,1.071l0,0
										C202.615,222.738,202.136,223.224,201.54,223.228z"/>
									<path style="fill:#3E479B;" d="M185.65,226.764c-0.274,0-0.498-0.222-0.5-0.497c-0.002-0.276,0.221-0.502,0.497-0.503
										l13.02-0.085c0.001,0,0.002,0,0.003,0c0.274,0,0.498,0.222,0.5,0.497c0.002,0.276-0.221,0.501-0.497,0.503l-13.02,0.085
										C185.652,226.764,185.651,226.764,185.65,226.764z"/>
									<path style="fill:#3E479B;" d="M185.669,229.488c-0.274,0-0.498-0.222-0.5-0.497c-0.002-0.276,0.221-0.501,0.497-0.503
										l21.228-0.139c0.258-0.023,0.501,0.221,0.503,0.497c0.002,0.276-0.221,0.501-0.497,0.503l-21.229,0.139
										C185.671,229.488,185.67,229.488,185.669,229.488z"/>
									<path style="fill:#3E479B;" d="M201.572,226.659c-0.274,0-0.498-0.222-0.5-0.497c-0.002-0.276,0.221-0.501,0.497-0.503
										l13.02-0.085c0.274-0.002,0.501,0.221,0.503,0.497c0.002,0.276-0.221,0.501-0.497,0.503l-13.02,0.085
										C201.574,226.659,201.573,226.659,201.572,226.659z"/>
								</g>
								<g>
									<g>
										<path style="fill:#FFFFFF;" d="M179.49,228.753h-3.901c-0.304,0-0.543-0.26-0.517-0.563l0.335-3.91
											c0.023-0.268,0.248-0.475,0.517-0.475h3.148c0.265,0,0.488,0.2,0.516,0.464l0.418,3.909
											C180.039,228.486,179.799,228.753,179.49,228.753z"/>
										<path style="fill:#FFFFFF;" d="M179.247,224.556h-0.25v-1.576c0-0.512-0.362-0.929-0.807-0.929h-1.162
											c-0.515,0-0.933,0.481-0.933,1.073v1.432h-0.25v-1.432c0-0.73,0.53-1.323,1.183-1.323h1.162
											c0.583,0,1.057,0.529,1.057,1.179V224.556z"/>
									</g>
									<rect x="176.356" y="225.008" style="fill:#F9CAD0;" width="2.367" height="0.646"/>
								</g>
							</g>
							<g>
								<g style="opacity:0.26;">
									<path style="fill:#3E479B;" d="M201.77,259.115l-14.831,0.097c-0.595,0.004-1.081-0.476-1.085-1.071l0,0
										c-0.004-0.595,0.476-1.081,1.071-1.085l14.831-0.097c0.595-0.004,1.081,0.476,1.085,1.071l0,0
										C202.845,258.625,202.365,259.111,201.77,259.115z"/>
									<path style="fill:#3E479B;" d="M185.88,262.65c-0.274,0-0.498-0.222-0.5-0.497c-0.002-0.275,0.221-0.501,0.497-0.503
										l13.019-0.085c0.001,0,0.002,0,0.003,0c0.274,0,0.498,0.222,0.5,0.497c0.002,0.275-0.221,0.501-0.497,0.503l-13.02,0.085
										C185.882,262.65,185.881,262.65,185.88,262.65z"/>
									<path style="fill:#3E479B;" d="M185.898,265.375c-0.274,0-0.498-0.222-0.5-0.497c-0.002-0.275,0.221-0.501,0.497-0.503
										l21.229-0.14c0.304,0.028,0.501,0.221,0.503,0.497c0.002,0.275-0.221,0.501-0.497,0.503l-21.229,0.14
										C185.9,265.375,185.899,265.375,185.898,265.375z"/>
									<path style="fill:#3E479B;" d="M201.802,262.546c-0.274,0-0.498-0.222-0.5-0.497c-0.002-0.275,0.221-0.501,0.497-0.503
										l13.02-0.085c0.001,0,0.002,0,0.003,0c0.274,0,0.498,0.222,0.5,0.497c0.002,0.275-0.221,0.501-0.497,0.503l-13.02,0.085
										C201.804,262.546,201.803,262.546,201.802,262.546z"/>
								</g>
								<g>
									<g>
										<path style="fill:#708CF5;" d="M181.408,267.239l-7.657,0.05c-1.205,0.008-2.189-0.963-2.197-2.168l-0.05-7.657
											c-0.008-1.205,0.963-2.189,2.168-2.197l7.657-0.05c1.205-0.008,2.189,0.963,2.196,2.168l0.05,7.657
											C183.583,266.248,182.613,267.231,181.408,267.239z"/>
									</g>
								</g>
								<g>
									<g>
										<path style="fill:#FFFFFF;" d="M179.49,264.667h-3.901c-0.304,0-0.543-0.26-0.517-0.563l0.335-3.909
											c0.023-0.268,0.248-0.475,0.517-0.475h3.148c0.265,0,0.488,0.2,0.516,0.464l0.418,3.91
											C180.039,264.4,179.799,264.667,179.49,264.667z"/>
										<path style="fill:#FFFFFF;" d="M179.247,260.47h-0.25v-1.576c0-0.512-0.362-0.929-0.807-0.929h-1.162
											c-0.515,0-0.933,0.481-0.933,1.073v1.432h-0.25v-1.432c0-0.729,0.53-1.323,1.183-1.323h1.162
											c0.583,0,1.057,0.528,1.057,1.179V260.47z"/>
									</g>
									<rect x="176.356" y="260.923" style="fill:#708CF5;" width="2.367" height="0.646"/>
								</g>
							</g>
							<g>
								<g style="opacity:0.26;">
									<path style="fill:#3E479B;" d="M201.655,240.673l-14.831,0.097c-0.595,0.004-1.081-0.476-1.085-1.071l0,0
										c-0.004-0.595,0.475-1.081,1.071-1.085l14.831-0.097c0.595-0.004,1.081,0.476,1.085,1.071l0,0
										C202.73,240.184,202.25,240.669,201.655,240.673z"/>
									<path style="fill:#3E479B;" d="M185.766,244.21c-0.274,0-0.498-0.222-0.5-0.497c-0.002-0.276,0.221-0.502,0.497-0.503
										l6.021-0.04c0.001,0,0.002,0,0.003,0c0.274,0,0.498,0.222,0.5,0.497c0.002,0.276-0.221,0.501-0.497,0.503l-6.021,0.04
										C185.768,244.21,185.767,244.21,185.766,244.21z"/>
									<path style="fill:#3E479B;" d="M185.783,246.934c-0.274,0-0.498-0.222-0.5-0.497c-0.002-0.276,0.221-0.501,0.497-0.503
										l12.355-0.081c0.001,0,0.002,0,0.003,0c0.274,0,0.498,0.222,0.5,0.497c0.002,0.276-0.221,0.502-0.497,0.503l-12.355,0.081
										C185.785,246.934,185.784,246.934,185.783,246.934z"/>
									<path style="fill:#3E479B;" d="M194.307,244.153c-0.274,0-0.498-0.222-0.5-0.497c-0.002-0.276,0.221-0.501,0.497-0.503
										l12.024-0.079c0.273-0.016,0.501,0.221,0.503,0.497c0.002,0.276-0.221,0.501-0.497,0.503l-12.024,0.079
										C194.309,244.153,194.308,244.153,194.307,244.153z"/>
									<path style="fill:#3E479B;" d="M208.569,244.06c-0.274,0-0.498-0.222-0.5-0.497c-0.002-0.276,0.221-0.502,0.497-0.503
										l6.023-0.04c0.274,0.039,0.501,0.221,0.503,0.497c0.002,0.276-0.221,0.501-0.497,0.503l-6.022,0.04
										C208.571,244.06,208.57,244.06,208.569,244.06z"/>
								</g>
								<g>
									<path style="fill:#F7A9B4;" d="M181.408,248.797l-7.657,0.05c-1.205,0.008-2.189-0.963-2.197-2.168l-0.05-7.656
										c-0.008-1.205,0.963-2.189,2.168-2.197l7.657-0.05c1.205-0.008,2.189,0.963,2.196,2.168l0.05,7.656
										C183.583,247.806,182.613,248.789,181.408,248.797z"/>
								</g>
								<g>
									<g>
										<path style="fill:#FFFFFF;" d="M179.49,246.226h-3.901c-0.304,0-0.543-0.26-0.517-0.563l0.335-3.909
											c0.023-0.268,0.248-0.475,0.517-0.475h3.148c0.265,0,0.488,0.2,0.516,0.464l0.418,3.91
											C180.039,245.958,179.799,246.226,179.49,246.226z"/>
										<path style="fill:#FFFFFF;" d="M179.247,242.028h-0.25v-1.576c0-0.512-0.362-0.929-0.807-0.929h-1.162
											c-0.515,0-0.933,0.481-0.933,1.073v1.432h-0.25v-1.432c0-0.73,0.53-1.323,1.183-1.323h1.162
											c0.583,0,1.057,0.529,1.057,1.179V242.028z"/>
									</g>
									<rect x="176.356" y="242.481" style="fill:#F9CAD0;" width="2.367" height="0.646"/>
								</g>
							</g>
						</g>
					</g>
					<path style="fill:#F7A9B4;" d="M198.355,276.498h-10.308c-0.913,0-1.654-0.741-1.654-1.654l0,0
						c0-0.914,0.741-1.654,1.654-1.654h10.308c0.914,0,1.654,0.741,1.654,1.654l0,0
						C200.009,275.757,199.269,276.498,198.355,276.498z"/>
					<g style="opacity:0.43;">
						<path style="fill:#FFFFFF;" d="M216.584,200.815c-0.128,0-0.256-0.049-0.354-0.146l-2.058-2.058
							c-0.195-0.195-0.195-0.512,0-0.707c0.195-0.195,0.512-0.195,0.707,0l2.058,2.058c0.195,0.195,0.195,0.512,0,0.707
							C216.84,200.766,216.712,200.815,216.584,200.815z"/>
						<path style="fill:#FFFFFF;" d="M214.526,200.815c-0.128,0-0.256-0.049-0.354-0.146c-0.195-0.195-0.195-0.512,0-0.707
							l2.058-2.058c0.195-0.195,0.512-0.195,0.707,0c0.195,0.195,0.195,0.512,0,0.707l-2.058,2.058
							C214.782,200.766,214.654,200.815,214.526,200.815z"/>
					</g>
				</g>
			</g>
			<g>
				<circle style="fill:#F9CAD0;" cx="184.425" cy="309.068" r="11.212"/>
				<g>
					<path style="fill:#FFFFFF;" d="M190.12,310.068h-11.39c-0.553,0-1-0.447-1-1c0-0.553,0.447-1,1-1h11.39c0.553,0,1,0.447,1,1
						C191.12,309.621,190.673,310.068,190.12,310.068z"/>
					<path style="fill:#FFFFFF;" d="M184.426,315.764c-0.553,0-1-0.447-1-1v-11.391c0-0.553,0.447-1,1-1c0.553,0,1,0.447,1,1v11.391
						C185.426,315.316,184.978,315.764,184.426,315.764z"/>
				</g>
			</g>
		</g>
		<g>
			<g>
				<g>
					<path style="fill:#FFFFFF;" d="M190.041,77.34v47.533v10.333c0,1.9,1.916,3.44,4.279,3.44h92.61c2.363,0,4.279-1.54,4.279-3.44
						V70.829c0-1.9-1.916-3.44-4.279-3.44h-92.61c-2.363,0-4.279,1.54-4.279,3.44V77.34"/>
					<path style="fill:#B69CDC;" d="M201.126,109.219c0-7.157,5.177-13.093,11.987-14.3l-0.564-3.329
						c-9.736,1.649-16.292,10.879-14.642,20.615l3.434-0.582C201.21,110.84,201.126,110.04,201.126,109.219z"/>
					<path style="fill:#FFFFFF;" d="M233.409,109.846c0.041-1.187-0.037-2.396-0.244-3.613l0,0v0
						C233.371,107.449,233.449,108.658,233.409,109.846z"/>
					<path style="fill:#FFAAB5;" d="M233.165,106.232L233.165,106.232c-1.649-9.736-10.879-16.292-20.615-14.642l0.564,3.329
						c0.829-0.147,1.678-0.237,2.55-0.237c8.029,0,14.537,6.508,14.537,14.537c0,7.243-5.303,13.232-12.235,14.337l0.558,3.291
						c7.302-1.237,12.815-6.738,14.419-13.519c0.267-1.13,0.426-2.296,0.467-3.483C233.449,108.658,233.371,107.449,233.165,106.232
						z"/>
					<path style="fill:#F9CAD0;" d="M190.041,80.95V70.829c0-1.9,1.916-3.44,4.279-3.44h92.61c2.363,0,4.279,1.54,4.279,3.44v9.679"
						/>
					<path style="fill:#FFFFFF;" d="M197.343,76.698c-1.152,0-2.09-0.971-2.09-2.165c0-1.193,0.938-2.165,2.09-2.165
						c1.153,0,2.091,0.971,2.091,2.165C199.434,75.727,198.496,76.698,197.343,76.698z M197.343,73.369
						c-0.601,0-1.09,0.522-1.09,1.165c0,0.643,0.489,1.165,1.09,1.165c0.602,0,1.091-0.522,1.091-1.165
						C198.434,73.891,197.944,73.369,197.343,73.369z"/>
					<path style="fill:#FFFFFF;" d="M203.31,76.698c-1.152,0-2.09-0.971-2.09-2.165c0-1.193,0.938-2.165,2.09-2.165
						c1.153,0,2.091,0.971,2.091,2.165C205.4,75.727,204.463,76.698,203.31,76.698z M203.31,73.369c-0.601,0-1.09,0.522-1.09,1.165
						c0,0.643,0.489,1.165,1.09,1.165c0.602,0,1.091-0.522,1.091-1.165C204.4,73.891,203.911,73.369,203.31,73.369z"/>
					<path style="fill:#FFFFFF;" d="M209.164,76.698c-1.152,0-2.09-0.971-2.09-2.165c0-1.193,0.938-2.165,2.09-2.165
						c1.153,0,2.091,0.971,2.091,2.165C211.255,75.727,210.317,76.698,209.164,76.698z M209.164,73.369
						c-0.601,0-1.09,0.522-1.09,1.165c0,0.643,0.489,1.165,1.09,1.165c0.602,0,1.091-0.522,1.091-1.165
						C210.255,73.891,209.766,73.369,209.164,73.369z"/>
					<g>
						<line style="fill:#FFAAB5;" x1="241.358" y1="96.501" x2="275.828" y2="96.501"/>
						<path style="fill:#103463;" d="M275.828,97.002h-34.47c-0.276,0-0.5-0.224-0.5-0.5c0-0.276,0.224-0.5,0.5-0.5h34.47
							c0.276,0,0.5,0.224,0.5,0.5C276.328,96.778,276.104,97.002,275.828,97.002z"/>
					</g>
					<g>
						<line style="fill:#FFAAB5;" x1="241.358" y1="116.934" x2="258.593" y2="116.934"/>
						<path style="fill:#103463;" d="M258.593,117.434h-17.234c-0.276,0-0.5-0.224-0.5-0.5s0.224-0.5,0.5-0.5h17.234
							c0.276,0,0.5,0.224,0.5,0.5S258.869,117.434,258.593,117.434z"/>
					</g>
					<g>
						<line style="fill:#FFAAB5;" x1="241.358" y1="103.014" x2="254.227" y2="103.014"/>
						<path style="fill:#103463;" d="M254.227,103.515h-12.868c-0.276,0-0.5-0.224-0.5-0.5c0-0.276,0.224-0.5,0.5-0.5h12.868
							c0.276,0,0.5,0.224,0.5,0.5C254.727,103.291,254.503,103.515,254.227,103.515z"/>
					</g>
					<g>
						<line style="fill:#FFAAB5;" x1="262.959" y1="103.014" x2="275.828" y2="103.014"/>
						<path style="fill:#103463;" d="M275.828,103.515h-12.869c-0.276,0-0.5-0.224-0.5-0.5c0-0.276,0.224-0.5,0.5-0.5h12.869
							c0.276,0,0.5,0.224,0.5,0.5C276.328,103.291,276.104,103.515,275.828,103.515z"/>
					</g>
					<g>
						<line style="fill:#FFAAB5;" x1="241.358" y1="110.466" x2="254.227" y2="110.466"/>
						<path style="fill:#103463;" d="M254.227,110.966h-12.868c-0.276,0-0.5-0.224-0.5-0.5s0.224-0.5,0.5-0.5h12.868
							c0.276,0,0.5,0.224,0.5,0.5S254.503,110.966,254.227,110.966z"/>
					</g>
					<g>
						<line style="fill:#FFAAB5;" x1="262.959" y1="110.466" x2="275.828" y2="110.466"/>
						<path style="fill:#103463;" d="M275.828,110.966h-12.869c-0.276,0-0.5-0.224-0.5-0.5s0.224-0.5,0.5-0.5h12.869
							c0.276,0,0.5,0.224,0.5,0.5S276.104,110.966,275.828,110.966z"/>
					</g>
				</g>
				<g>
					<path style="fill:#FFFFFF;" d="M215.282,179.662h-78.701c-2.008,0-3.636-1.698-3.636-3.792v-63.793v-7.178
						c0-2.094,1.628-3.792,3.636-3.792h78.701c2.008,0,3.636,1.698,3.636,3.792v70.972
						C218.919,177.964,217.29,179.662,215.282,179.662z"/>
					<path style="fill:#FFFFFF;" d="M215.282,179.662h-78.701c-2.008,0-3.636-1.698-3.636-3.792v-63.793v-7.178
						c0-2.094,1.628-3.792,3.636-3.792h78.701c2.008,0,3.636,1.698,3.636,3.792v70.972
						C218.919,177.964,217.29,179.662,215.282,179.662z"/>
					<path style="fill:#708CF5;" d="M132.945,112.63v-8.601c0-1.615,1.628-2.923,3.636-2.923h78.701
						c2.008,0,3.636,1.309,3.636,2.923v8.225"/>
					<path style="fill:#FFFFFF;" d="M139.15,109.092c-1.02,0-1.852-0.859-1.852-1.915c0-1.056,0.831-1.915,1.852-1.915
						c1.021,0,1.851,0.859,1.851,1.915C141.001,108.233,140.171,109.092,139.15,109.092z M139.15,106.262
						c-0.47,0-0.852,0.411-0.852,0.915c0,0.504,0.382,0.915,0.852,0.915c0.469,0,0.851-0.41,0.851-0.915
						C140.001,106.673,139.619,106.262,139.15,106.262z"/>
					<path style="fill:#FFFFFF;" d="M144.221,109.092c-1.02,0-1.852-0.859-1.852-1.915c0-1.056,0.831-1.915,1.852-1.915
						c1.021,0,1.852,0.859,1.852,1.915C146.072,108.233,145.241,109.092,144.221,109.092z M144.221,106.262
						c-0.47,0-0.852,0.411-0.852,0.915c0,0.504,0.382,0.915,0.852,0.915c0.47,0,0.852-0.41,0.852-0.915
						C145.072,106.673,144.69,106.262,144.221,106.262z"/>
					<path style="fill:#FFFFFF;" d="M149.196,109.092c-1.02,0-1.852-0.859-1.852-1.915c0-1.056,0.831-1.915,1.852-1.915
						c1.021,0,1.852,0.859,1.852,1.915C151.048,108.233,150.217,109.092,149.196,109.092z M149.196,106.262
						c-0.47,0-0.852,0.411-0.852,0.915c0,0.504,0.382,0.915,0.852,0.915c0.47,0,0.852-0.41,0.852-0.915
						C150.048,106.673,149.666,106.262,149.196,106.262z"/>
					<g style="opacity:0.31;">
						<path style="fill:#103463;" d="M212.015,174.798h-72.166c-1.941,0-3.521-1.58-3.521-3.522V121.1
							c0-1.942,1.58-3.521,3.521-3.521h72.166c1.941,0,3.521,1.58,3.521,3.521v50.177
							C215.536,173.218,213.956,174.798,212.015,174.798z M139.849,118.578c-1.391,0-2.521,1.131-2.521,2.521v50.177
							c0,1.391,1.131,2.522,2.521,2.522h72.166c1.391,0,2.521-1.131,2.521-2.522V121.1c0-1.39-1.131-2.521-2.521-2.521H139.849z"/>
						<polygon style="fill:#FFAAB5;" points="166.075,163.743 146.683,163.743 146.683,131.257 147.128,131.257 166.075,131.257 
													"/>
						<polygon style="fill:#708CF5;" points="166.075,139.123 146.683,139.123 146.683,131.257 147.128,131.257 166.075,131.257 
													"/>
						<polygon style="fill:#B69CDC;" points="176.293,149.274 176.293,128.973 207.324,128.973 207.324,129.439 207.324,149.274 
													"/>
						<polygon style="fill:#FFAAB5;" points="176.293,164.766 176.293,154.615 207.324,154.615 207.324,154.848 207.324,164.766 
													"/>
					</g>
				</g>
			</g>
			<g>
				<path style="fill:#B69CDC;" d="M223.445,154.415c0-8.161,5.903-14.929,13.669-16.305l-0.643-3.796
					c-11.102,1.881-18.576,12.405-16.696,23.507l3.916-0.663C223.541,156.263,223.445,155.351,223.445,154.415z"/>
				<path style="fill:#FFFFFF;" d="M260.255,155.129c0.046-1.354-0.043-2.733-0.278-4.12l0,0v0
					C260.212,152.397,260.301,153.775,260.255,155.129z"/>
				<path style="fill:#708CF5;" d="M240.021,170.99c-8.218,0-15.021-5.987-16.33-13.834l-3.916,0.663
					c1.881,11.102,12.405,18.576,23.507,16.696l-0.636-3.753C241.788,170.9,240.916,170.99,240.021,170.99z"/>
				<path style="fill:#FFAAB5;" d="M259.977,151.009L259.977,151.009c-1.881-11.102-12.405-18.577-23.507-16.696l0.643,3.796
					c0.946-0.168,1.914-0.271,2.907-0.271c9.154,0,16.576,7.421,16.576,16.576c0,8.259-6.047,15.087-13.951,16.348l0.636,3.753
					c8.326-1.411,14.612-7.683,16.442-15.415c0.305-1.289,0.486-2.618,0.532-3.972C260.301,153.775,260.212,152.397,259.977,151.009
					z"/>
			</g>
		</g>
	</g>
</g>
</svg>
