<?xml version="1.0" encoding="UTF-8"?>
<!--Generator: Apple Native CoreSVG 232.5-->
<!DOCTYPE svg
PUBLIC "-//W3C//DTD SVG 1.1//EN"
       "http://www.w3.org/Graphics/SVG/1.1/DTD/svg11.dtd">
<svg version="1.1" xmlns="http://www.w3.org/2000/svg" xmlns:xlink="http://www.w3.org/1999/xlink" width="16.425" height="20.9372">
 <g>
  <rect height="20.9372" opacity="0" width="16.425" x="0" y="0"/>
  <path d="M3.02229 20.9332L13.3925 20.9332C15.41 20.9332 16.425 19.9056 16.425 17.8696L16.425 9.00283C16.425 7.75451 16.2797 7.20704 15.5001 6.40672L10.1136 0.927043C9.37536 0.166011 8.76367 0 7.66027 0L3.02229 0C1.01116 0 0.000100252 1.02753 0.000100252 3.06359L0.000100252 17.8696C0.000100252 19.916 1.00693 20.9332 3.02229 20.9332ZM3.09896 19.3625C2.09265 19.3625 1.5708 18.8199 1.5708 17.8447L1.5708 3.0885C1.5708 2.12379 2.09265 1.57068 3.10931 1.57068L7.44793 1.57068L7.44793 7.24243C7.44793 8.47083 8.07248 9.08062 9.28612 9.08062L14.8461 9.08062L14.8461 17.8447C14.8461 18.8199 14.3221 19.3625 13.3158 19.3625ZM9.46631 7.60308C9.0773 7.60308 8.91512 7.44088 8.91512 7.05399L8.91512 1.87337L14.5434 7.60308Z" fill="#000000" fill-opacity="0.85"/>
  <path d="M11.801 11.7781L4.40084 11.7781C4.04429 11.7781 3.77688 12.033 3.77688 12.3668C3.77688 12.7109 4.04429 12.9762 4.40084 12.9762L11.801 12.9762C12.1472 12.9762 12.4043 12.7109 12.4043 12.3668C12.4043 12.033 12.1472 11.7781 11.801 11.7781ZM11.801 15.1801L4.40084 15.1801C4.04429 15.1801 3.77688 15.4475 3.77688 15.7895C3.77688 16.1232 4.04429 16.3782 4.40084 16.3782L11.801 16.3782C12.1472 16.3782 12.4043 16.1232 12.4043 15.7895C12.4043 15.4475 12.1472 15.1801 11.801 15.1801Z" fill="#000000" fill-opacity="0.85"/>
 </g>
</svg>
