<?xml version="1.0" encoding="UTF-8"?>
<!--Generator: Apple Native CoreSVG 232.5-->
<!DOCTYPE svg
PUBLIC "-//W3C//DTD SVG 1.1//EN"
       "http://www.w3.org/Graphics/SVG/1.1/DTD/svg11.dtd">
<svg version="1.1" xmlns="http://www.w3.org/2000/svg" xmlns:xlink="http://www.w3.org/1999/xlink" width="17.0555" height="18.0907">
 <g>
  <rect height="18.0907" opacity="0" width="17.0555" x="0" y="0"/>
  <path d="M2.39262 18.0803L14.6616 18.0803C16.288 18.0803 17.0555 17.5926 17.0555 16.5218C17.0555 13.9633 13.8305 10.2569 8.52712 10.2569C3.23625 10.2569 0.000821435 13.9633 0.000821435 16.5218C0.000821435 17.5926 0.776616 18.0803 2.39262 18.0803ZM1.92897 16.6028C1.67581 16.6028 1.57152 16.5401 1.57152 16.3355C1.57152 14.7277 4.04843 11.7344 8.52712 11.7344C13.0079 11.7344 15.4848 14.7277 15.4848 16.3355C15.4848 16.5401 15.3805 16.6028 15.1253 16.6028ZM8.53134 9.04083C10.859 9.04083 12.7483 6.97502 12.7483 4.46022C12.7483 1.96863 10.8692 0 8.53134 0C6.21421 0 4.31654 2.0018 4.31654 4.48091C4.31654 6.98536 6.21611 9.04083 8.53134 9.04083ZM8.53134 7.57364C7.10918 7.57364 5.88722 6.20614 5.88722 4.48091C5.88722 2.78102 7.08448 1.47753 8.53134 1.47753C9.98645 1.47753 11.1776 2.75819 11.1776 4.46022C11.1776 6.18545 9.9742 7.57364 8.53134 7.57364Z" fill="#000000" fill-opacity="0.85"/>
 </g>
</svg>
