<?xml version="1.0" encoding="UTF-8"?>
<!--Generator: Apple Native CoreSVG 232.5-->
<!DOCTYPE svg
PUBLIC "-//W3C//DTD SVG 1.1//EN"
       "http://www.w3.org/Graphics/SVG/1.1/DTD/svg11.dtd">
<svg version="1.1" xmlns="http://www.w3.org/2000/svg" xmlns:xlink="http://www.w3.org/1999/xlink" width="23.3038" height="22.1604">
 <g>
  <rect height="22.1604" opacity="0" width="23.3038" x="0" y="0"/>
  <path d="M8.83772 19.5036L14.4649 19.5036L14.4649 12.3954C14.4649 11.9493 14.1702 11.6547 13.7241 11.6547L9.57845 11.6547C9.13236 11.6547 8.83772 11.9493 8.83772 12.3954ZM5.02045 20.5063L18.2285 20.5063C19.617 20.5063 20.4261 19.7136 20.4261 18.3501L20.4261 7.55507L18.8575 6.49388L18.8575 17.9502C18.8575 18.5907 18.5126 18.9356 17.8928 18.9356L5.34576 18.9356C4.72803 18.9356 4.39351 18.5907 4.39351 17.9502L4.39351 6.4981L2.81246 7.55507L2.81246 18.3501C2.81246 19.7157 3.62161 20.5063 5.02045 20.5063ZM-8.88178e-16 9.64057C-8.88178e-16 10.0425 0.317044 10.4217 0.847446 10.4217C1.11888 10.4217 1.34258 10.2726 1.53944 10.1089L11.3124 1.89961C11.5369 1.71249 11.7925 1.71442 12.0089 1.89961L21.7735 10.1089C21.9807 10.2726 22.2044 10.4217 22.4758 10.4217C22.9358 10.4217 23.3027 10.1357 23.3027 9.67162C23.3027 9.37526 23.2135 9.1784 22.9999 9.00013L12.8422 0.459869C12.1118-0.152234 11.222-0.154344 10.4895 0.459869L0.313029 9.00013C0.0994931 9.1784-8.88178e-16 9.41669-8.88178e-16 9.64057ZM17.9749 5.23863L20.4261 7.31449L20.4261 2.79558C20.4261 2.3685 20.1441 2.09687 19.7274 2.09687L18.684 2.09687C18.2569 2.09687 17.9749 2.3685 17.9749 2.79558Z" fill="#000000" fill-opacity="0.85"/>
 </g>
</svg>
