<?xml version="1.0" encoding="UTF-8"?>
<!--Generator: Apple Native CoreSVG 232.5-->
<!DOCTYPE svg
PUBLIC "-//W3C//DTD SVG 1.1//EN"
       "http://www.w3.org/Graphics/SVG/1.1/DTD/svg11.dtd">
<svg version="1.1" xmlns="http://www.w3.org/2000/svg" xmlns:xlink="http://www.w3.org/1999/xlink" width="19.6709" height="14.2776">
 <g>
  <rect height="14.2776" opacity="0" width="19.6709" x="0" y="0"/>
  <path d="M5.54121 13.8321L18.8856 13.8321C19.3228 13.8321 19.6709 13.4861 19.6709 13.0488C19.6709 12.6095 19.3228 12.2635 18.8856 12.2635L5.54121 12.2635C5.10186 12.2635 4.75586 12.6095 4.75586 13.0488C4.75586 13.4861 5.10186 13.8321 5.54121 13.8321Z" fill="#000000" fill-opacity="0.85"/>
  <path d="M1.23133 14.2776C1.90594 14.2776 2.46015 13.7234 2.46015 13.0488C2.46015 12.3721 1.90594 11.8179 1.23133 11.8179C0.554618 11.8179 0.000410907 12.3721 0.000410907 13.0488C0.000410907 13.7234 0.554618 14.2776 1.23133 14.2776Z" fill="#000000" fill-opacity="0.85"/>
  <path d="M5.54121 7.93038L18.8856 7.93038C19.3228 7.93038 19.6709 7.58228 19.6709 7.14504C19.6709 6.70781 19.3228 6.3597 18.8856 6.3597L5.54121 6.3597C5.10186 6.3597 4.75586 6.70781 4.75586 7.14504C4.75586 7.58228 5.10186 7.93038 5.54121 7.93038Z" fill="#000000" fill-opacity="0.85"/>
  <path d="M1.23133 8.37597C1.90594 8.37597 2.46015 7.82176 2.46015 7.14504C2.46015 6.46832 1.90594 5.91413 1.23133 5.91413C0.554618 5.91413 0.000410907 6.46832 0.000410907 7.14504C0.000410907 7.82176 0.554618 8.37597 1.23133 8.37597Z" fill="#000000" fill-opacity="0.85"/>
  <path d="M5.54121 2.02661L18.8856 2.02661C19.3228 2.02661 19.6709 1.68062 19.6709 1.24127C19.6709 0.804038 19.3228 0.458041 18.8856 0.458041L5.54121 0.458041C5.10186 0.458041 4.75586 0.804038 4.75586 1.24127C4.75586 1.68062 5.10186 2.02661 5.54121 2.02661Z" fill="#000000" fill-opacity="0.85"/>
  <path d="M1.23133 2.4722C1.90594 2.4722 2.46015 1.91799 2.46015 1.24127C2.46015 0.566665 1.90594 0.0124528 1.23133 0.0124528C0.554618 0.0124528 0.000410907 0.566665 0.000410907 1.24127C0.000410907 1.91799 0.554618 2.4722 1.23133 2.4722Z" fill="#000000" fill-opacity="0.85"/>
 </g>
</svg>
