<?xml version="1.0" ?><svg style="enable-background:new 0 0 512 512;" version="1.1" viewBox="0 0 512 512" xml:space="preserve" xmlns="http://www.w3.org/2000/svg" xmlns:xlink="http://www.w3.org/1999/xlink"><style type="text/css">
	.st0{fill:#333333;}
</style><g id="Layer_1"/><g id="Layer_2"><g><path class="st0" d="M418.47,189.97c-36.41,0-66.03,29.62-66.03,66.03s29.62,66.03,66.03,66.03S484.5,292.41,484.5,256    S454.88,189.97,418.47,189.97z M418.47,290.03c-18.76,0-34.03-15.26-34.03-34.03s15.26-34.03,34.03-34.03S452.5,237.24,452.5,256    S437.24,290.03,418.47,290.03z"/><path class="st0" d="M189.97,256c0,36.41,29.62,66.03,66.03,66.03s66.03-29.62,66.03-66.03s-29.62-66.03-66.03-66.03    S189.97,219.59,189.97,256z M290.03,256c0,18.76-15.26,34.03-34.03,34.03s-34.03-15.26-34.03-34.03s15.26-34.03,34.03-34.03    S290.03,237.24,290.03,256z"/><path class="st0" d="M93.53,322.03c36.41,0,66.03-29.62,66.03-66.03s-29.62-66.03-66.03-66.03S27.5,219.59,27.5,256    S57.12,322.03,93.53,322.03z M93.53,221.97c18.76,0,34.03,15.26,34.03,34.03s-15.26,34.03-34.03,34.03S59.5,274.76,59.5,256    S74.76,221.97,93.53,221.97z"/></g></g></svg>