<?xml version="1.0" encoding="UTF-8"?>
<!--Generator: Apple Native CoreSVG 232.5-->
<!DOCTYPE svg
PUBLIC "-//W3C//DTD SVG 1.1//EN"
       "http://www.w3.org/Graphics/SVG/1.1/DTD/svg11.dtd">
<svg version="1.1" xmlns="http://www.w3.org/2000/svg" xmlns:xlink="http://www.w3.org/1999/xlink" width="23.978" height="19.2363">
 <g>
  <rect height="19.2363" opacity="0" width="23.978" x="0" y="0"/>
  <path d="M3.06436 18.6176L20.9165 18.6176C22.9525 18.6176 23.978 17.5962 23.978 15.5851L23.978 5.37095C23.978 3.35982 22.9525 2.34878 20.9165 2.34878L18.1204 2.34878C17.3497 2.34878 17.1214 2.18928 16.6787 1.70503L15.8996 0.826238C15.4052 0.292321 14.9093 0 13.9065 0L10.0112 0C8.99808 0 8.50215 0.292321 8.01808 0.826238L7.22863 1.70503C6.80052 2.18506 6.55554 2.34878 5.79732 2.34878L3.06436 2.34878C1.02829 2.34878 0.000765825 3.35982 0.000765825 5.37095L0.000765825 15.5851C0.000765825 17.5962 1.02829 18.6176 3.06436 18.6176ZM3.08929 17.0366C2.12245 17.0366 1.57146 16.5251 1.57146 15.5084L1.57146 5.458C1.57146 4.44131 2.12245 3.91947 3.08929 3.91947L6.18855 3.91947C7.06502 3.91947 7.53411 3.75155 8.02853 3.20518L8.78695 2.34708C9.34557 1.72614 9.63218 1.57068 10.4956 1.57068L13.4118 1.57068C14.2752 1.57068 14.5618 1.72614 15.1204 2.34708L15.8892 3.20518C16.3732 3.75155 16.8527 3.91947 17.7292 3.91947L20.8915 3.91947C21.8459 3.91947 22.399 4.44131 22.399 5.458L22.399 15.5084C22.399 16.5251 21.8459 17.0366 20.8915 17.0366ZM11.9904 15.6394C14.9417 15.6394 17.3095 13.2737 17.3095 10.2975C17.3095 7.33154 14.946 4.96587 11.9904 4.96587C9.03907 4.96587 6.66095 7.33154 6.66095 10.2975C6.66095 13.2737 9.03907 15.6394 11.9904 15.6394ZM11.9904 14.1555C9.87216 14.1555 8.13658 12.4364 8.13658 10.2975C8.13658 8.15851 9.8618 6.44974 11.9904 6.44974C14.1169 6.44974 15.8339 8.15851 15.8339 10.2975C15.8339 12.4364 14.1169 14.1555 11.9904 14.1555ZM17.711 6.7089C17.711 7.38581 18.2633 7.91933 18.936 7.91933C19.592 7.91933 20.1443 7.37948 20.1443 6.7089C20.1443 6.0529 19.592 5.49025 18.936 5.49025C18.2633 5.49025 17.711 6.0529 17.711 6.7089Z" fill="#000000" fill-opacity="0.85"/>
 </g>
</svg>
