<?xml version="1.0" encoding="UTF-8"?>
<!--Generator: Apple Native CoreSVG 232.5-->
<!DOCTYPE svg
PUBLIC "-//W3C//DTD SVG 1.1//EN"
       "http://www.w3.org/Graphics/SVG/1.1/DTD/svg11.dtd">
<svg version="1.1" xmlns="http://www.w3.org/2000/svg" xmlns:xlink="http://www.w3.org/1999/xlink" width="23.0185" height="17.999">
 <g>
  <rect height="17.999" opacity="0" width="23.0185" x="0" y="0"/>
  <path d="M3.06359 17.999L19.9544 17.999C22.0008 17.999 23.018 16.9776 23.018 14.9665L23.018 3.04921C23.018 1.03808 22.0008 0.0166791 19.9544 0.0166791L3.06359 0.0166791C1.02753 0.0166791 0 1.03386 0 3.04921L0 14.9665C0 16.9819 1.02753 17.999 3.06359 17.999ZM3.08852 16.418C2.11324 16.418 1.5707 15.9065 1.5707 14.8898L1.5707 3.12589C1.5707 2.11958 2.11324 1.59773 3.08852 1.59773L19.9295 1.59773C20.8963 1.59773 21.4473 2.11958 21.4473 3.12589L21.4473 14.8898C21.4473 15.9065 20.8963 16.418 19.9295 16.418ZM7.43335 16.7268L8.973 16.7268L8.973 1.29886L7.43335 1.29886ZM5.55598 5.21985C5.86078 5.21985 6.11572 4.95243 6.11572 4.66009C6.11572 4.36987 5.86078 4.12317 5.55598 4.12317L3.46878 4.12317C3.17433 4.12317 2.91728 4.36987 2.91728 4.66009C2.91728 4.95243 3.17433 5.21985 3.46878 5.21985ZM5.55598 7.74579C5.86078 7.74579 6.11572 7.48873 6.11572 7.18817C6.11572 6.89582 5.86078 6.64911 5.55598 6.64911L3.46878 6.64911C3.17433 6.64911 2.91728 6.89582 2.91728 7.18817C2.91728 7.48873 3.17433 7.74579 3.46878 7.74579ZM5.55598 10.2696C5.86078 10.2696 6.11572 10.0147 6.11572 9.72235C6.11572 9.43002 5.86078 9.18543 5.55598 9.18543L3.46878 9.18543C3.17433 9.18543 2.91728 9.43002 2.91728 9.72235C2.91728 10.0147 3.17433 10.2696 3.46878 10.2696Z" fill="#000000" fill-opacity="0.85"/>
 </g>
</svg>
