<?xml version="1.0" encoding="UTF-8"?>
<!--Generator: Apple Native CoreSVG 232.5-->
<!DOCTYPE svg
PUBLIC "-//W3C//DTD SVG 1.1//EN"
       "http://www.w3.org/Graphics/SVG/1.1/DTD/svg11.dtd">
<svg version="1.1" xmlns="http://www.w3.org/2000/svg" xmlns:xlink="http://www.w3.org/1999/xlink" width="19.9198" height="23.7069">
 <g>
  <rect height="23.7069" opacity="0" width="19.9198" x="0" y="0"/>
  <path d="M-8.88178e-16 11.8514C-8.88178e-16 17.2982 4.51831 21.8061 9.95468 21.8061C15.3993 21.8061 19.9197 17.2982 19.9197 11.8514C19.9197 8.56728 18.2574 5.61364 15.7454 3.79495C15.3185 3.46964 14.7778 3.57124 14.5395 3.9711C14.293 4.37519 14.4235 4.84348 14.8152 5.1356C16.9002 6.63112 18.2455 9.07085 18.2559 11.8514C18.2662 16.459 14.5622 20.1526 9.95468 20.1526C5.3575 20.1526 1.6721 16.459 1.6721 11.8514C1.6721 7.8957 4.38596 4.61304 8.07811 3.77012L8.07811 5.16987C8.07811 5.86225 8.54872 6.04897 9.08373 5.67151L12.2024 3.48934C12.6483 3.18034 12.6586 2.70762 12.2024 2.39036L9.09408 0.206084C8.54872-0.192072 8.07811-0.00534756 8.07811 0.697379L8.07811 2.07522C3.50534 2.97201-8.88178e-16 7.04614-8.88178e-16 11.8514Z" fill="#000000" fill-opacity="0.85"/>
 </g>
</svg>
