<?xml version="1.0" encoding="UTF-8"?>
<!--Generator: Apple Native CoreSVG 232.5-->
<!DOCTYPE svg
PUBLIC "-//W3C//DTD SVG 1.1//EN"
       "http://www.w3.org/Graphics/SVG/1.1/DTD/svg11.dtd">
<svg version="1.1" xmlns="http://www.w3.org/2000/svg" xmlns:xlink="http://www.w3.org/1999/xlink" width="23.0185" height="17.9906">
 <g>
  <rect height="17.9906" opacity="0" width="23.0185" x="0" y="0"/>
  <path d="M3.06359 17.9906L19.9544 17.9906C22.0008 17.9906 23.018 16.9692 23.018 14.958L23.018 3.04077C23.018 1.02964 22.0008 0.00823456 19.9544 0.00823456L3.06359 0.00823456C1.02753 0.00823456 0 1.02542 0 3.04077L0 14.958C0 16.9734 1.02753 17.9906 3.06359 17.9906ZM3.08852 16.4095C2.11324 16.4095 1.5707 15.8877 1.5707 14.8814L1.5707 3.11745C1.5707 2.10079 2.11324 1.58929 3.08852 1.58929L19.9295 1.58929C20.8963 1.58929 21.4473 2.10079 21.4473 3.11745L21.4473 14.8814C21.4473 15.8877 20.8963 16.4095 19.9295 16.4095Z" fill="#000000" fill-opacity="0.85"/>
  <path d="M9.68938 12.8042L15.2554 9.51624C15.6622 9.28582 15.6518 8.70899 15.2554 8.47857L9.68938 5.18425C9.27648 4.93524 8.71633 5.12829 8.71633 5.59718L8.71633 12.3913C8.71633 12.8602 9.23508 13.0843 9.68938 12.8042Z" fill="#000000" fill-opacity="0.85"/>
 </g>
</svg>
